<svg width="144" height="144" viewBox="0 0 144 144" fill="none" xmlns="http://www.w3.org/2000/svg">
<circle cx="72" cy="72" r="64.5" stroke="#4DEE54" stroke-width="15"/>
<path d="M43.3217 81V61.61L39.2967 62.555V59.125L45.2117 56.5H47.9767V81H43.3217ZM62.7722 81.42C60.5088 81.42 58.5722 80.895 56.9622 79.845C55.3522 78.7717 54.1038 77.29 53.2172 75.4C52.3538 73.4867 51.9222 71.27 51.9222 68.75C51.9222 66.2533 52.3538 64.0483 53.2172 62.135C54.1038 60.2217 55.3522 58.74 56.9622 57.69C58.5722 56.6167 60.5088 56.08 62.7722 56.08C65.0355 56.08 66.9722 56.6167 68.5822 57.69C70.1922 58.74 71.4288 60.2217 72.2922 62.135C73.1788 64.0483 73.6222 66.2533 73.6222 68.75C73.6222 71.27 73.1788 73.4867 72.2922 75.4C71.4288 77.29 70.1922 78.7717 68.5822 79.845C66.9722 80.895 65.0355 81.42 62.7722 81.42ZM62.7722 77.395C64.6155 77.395 66.1205 76.625 67.2872 75.085C68.4538 73.545 69.0372 71.4333 69.0372 68.75C69.0372 66.0667 68.4538 63.955 67.2872 62.415C66.1205 60.875 64.6155 60.105 62.7722 60.105C60.9055 60.105 59.3888 60.875 58.2222 62.415C57.0788 63.955 56.5072 66.0667 56.5072 68.75C56.5072 71.4333 57.0788 73.545 58.2222 75.085C59.3888 76.625 60.9055 77.395 62.7722 77.395ZM82.6158 68.54C81.4958 68.54 80.4808 68.295 79.5708 67.805C78.6608 67.2917 77.9375 66.5683 77.4008 65.635C76.8641 64.7017 76.5958 63.5933 76.5958 62.31C76.5958 61.0267 76.8641 59.9183 77.4008 58.985C77.9375 58.0517 78.6608 57.34 79.5708 56.85C80.4808 56.3367 81.5075 56.08 82.6508 56.08C83.7708 56.08 84.7741 56.3367 85.6608 56.85C86.5708 57.34 87.2941 58.0517 87.8308 58.985C88.3675 59.9183 88.6358 61.0267 88.6358 62.31C88.6358 63.5933 88.3675 64.7017 87.8308 65.635C87.2941 66.5683 86.5708 67.2917 85.6608 67.805C84.7508 68.295 83.7358 68.54 82.6158 68.54ZM81.2858 81L95.1108 56.5H99.4858L85.6608 81H81.2858ZM82.6158 65.425C83.2925 65.425 83.8758 65.1683 84.3658 64.655C84.8558 64.1183 85.1008 63.3367 85.1008 62.31C85.1008 61.2833 84.8558 60.5017 84.3658 59.965C83.8991 59.4283 83.3158 59.16 82.6158 59.16C81.9158 59.16 81.3208 59.4283 80.8308 59.965C80.3641 60.5017 80.1308 61.2833 80.1308 62.31C80.1308 63.3367 80.3641 64.1183 80.8308 64.655C81.3208 65.1683 81.9158 65.425 82.6158 65.425ZM98.2958 81.42C97.1758 81.42 96.1608 81.175 95.2508 80.685C94.3408 80.1717 93.6175 79.4483 93.0808 78.515C92.5441 77.5817 92.2758 76.4733 92.2758 75.19C92.2758 73.9067 92.5441 72.81 93.0808 71.9C93.6175 70.9667 94.3408 70.255 95.2508 69.765C96.1608 69.2517 97.1875 68.995 98.3308 68.995C99.4508 68.995 100.454 69.2517 101.341 69.765C102.251 70.255 102.974 70.9667 103.511 71.9C104.047 72.81 104.316 73.9067 104.316 75.19C104.316 76.4733 104.047 77.5817 103.511 78.515C102.974 79.4483 102.251 80.1717 101.341 80.685C100.454 81.175 99.4391 81.42 98.2958 81.42ZM98.2958 78.305C98.9958 78.305 99.5791 78.0483 100.046 77.535C100.536 76.9983 100.781 76.2167 100.781 75.19C100.781 74.1633 100.536 73.3817 100.046 72.845C99.5791 72.3083 98.9958 72.04 98.2958 72.04C97.5958 72.04 97.0008 72.3083 96.5108 72.845C96.0441 73.3817 95.8108 74.1633 95.8108 75.19C95.8108 76.2167 96.0441 76.9983 96.5108 77.535C97.0008 78.0483 97.5958 78.305 98.2958 78.305Z" fill="white"/>
</svg>
