<svg width="144" height="144" viewBox="0 0 144 144" fill="none" xmlns="http://www.w3.org/2000/svg">
<circle cx="72" cy="72" r="64.5" stroke="#4DEE54" stroke-width="15"/>
<path d="M31.3974 81V61.61L27.3724 62.555V59.125L33.2874 56.5H36.0524V81H31.3974ZM50.8479 81.42C48.5845 81.42 46.6479 80.895 45.0379 79.845C43.4279 78.7717 42.1795 77.29 41.2929 75.4C40.4295 73.4867 39.9979 71.27 39.9979 68.75C39.9979 66.2533 40.4295 64.0483 41.2929 62.135C42.1795 60.2217 43.4279 58.74 45.0379 57.69C46.6479 56.6167 48.5845 56.08 50.8479 56.08C53.1112 56.08 55.0479 56.6167 56.6579 57.69C58.2679 58.74 59.5045 60.2217 60.3679 62.135C61.2545 64.0483 61.6979 66.2533 61.6979 68.75C61.6979 71.27 61.2545 73.4867 60.3679 75.4C59.5045 77.29 58.2679 78.7717 56.6579 79.845C55.0479 80.895 53.1112 81.42 50.8479 81.42ZM50.8479 77.395C52.6912 77.395 54.1962 76.625 55.3629 75.085C56.5295 73.545 57.1129 71.4333 57.1129 68.75C57.1129 66.0667 56.5295 63.955 55.3629 62.415C54.1962 60.875 52.6912 60.105 50.8479 60.105C48.9812 60.105 47.4645 60.875 46.2979 62.415C45.1545 63.955 44.5829 66.0667 44.5829 68.75C44.5829 71.4333 45.1545 73.545 46.2979 75.085C47.4645 76.625 48.9812 77.395 50.8479 77.395ZM75.6965 81.42C73.4332 81.42 71.4965 80.895 69.8865 79.845C68.2765 78.7717 67.0282 77.29 66.1415 75.4C65.2782 73.4867 64.8465 71.27 64.8465 68.75C64.8465 66.2533 65.2782 64.0483 66.1415 62.135C67.0282 60.2217 68.2765 58.74 69.8865 57.69C71.4965 56.6167 73.4332 56.08 75.6965 56.08C77.9598 56.08 79.8965 56.6167 81.5065 57.69C83.1165 58.74 84.3532 60.2217 85.2165 62.135C86.1032 64.0483 86.5465 66.2533 86.5465 68.75C86.5465 71.27 86.1032 73.4867 85.2165 75.4C84.3532 77.29 83.1165 78.7717 81.5065 79.845C79.8965 80.895 77.9598 81.42 75.6965 81.42ZM75.6965 77.395C77.5398 77.395 79.0448 76.625 80.2115 75.085C81.3782 73.545 81.9615 71.4333 81.9615 68.75C81.9615 66.0667 81.3782 63.955 80.2115 62.415C79.0448 60.875 77.5398 60.105 75.6965 60.105C73.8298 60.105 72.3132 60.875 71.1465 62.415C70.0032 63.955 69.4315 66.0667 69.4315 68.75C69.4315 71.4333 70.0032 73.545 71.1465 75.085C72.3132 76.625 73.8298 77.395 75.6965 77.395ZM95.5401 68.54C94.4201 68.54 93.4051 68.295 92.4951 67.805C91.5851 67.2917 90.8618 66.5683 90.3251 65.635C89.7885 64.7017 89.5201 63.5933 89.5201 62.31C89.5201 61.0267 89.7885 59.9183 90.3251 58.985C90.8618 58.0517 91.5851 57.34 92.4951 56.85C93.4051 56.3367 94.4318 56.08 95.5751 56.08C96.6951 56.08 97.6985 56.3367 98.5851 56.85C99.4951 57.34 100.218 58.0517 100.755 58.985C101.292 59.9183 101.56 61.0267 101.56 62.31C101.56 63.5933 101.292 64.7017 100.755 65.635C100.218 66.5683 99.4951 67.2917 98.5851 67.805C97.6751 68.295 96.6601 68.54 95.5401 68.54ZM94.2101 81L108.035 56.5H112.41L98.5851 81H94.2101ZM95.5401 65.425C96.2168 65.425 96.8001 65.1683 97.2901 64.655C97.7801 64.1183 98.0251 63.3367 98.0251 62.31C98.0251 61.2833 97.7801 60.5017 97.2901 59.965C96.8235 59.4283 96.2401 59.16 95.5401 59.16C94.8401 59.16 94.2451 59.4283 93.7551 59.965C93.2885 60.5017 93.0551 61.2833 93.0551 62.31C93.0551 63.3367 93.2885 64.1183 93.7551 64.655C94.2451 65.1683 94.8401 65.425 95.5401 65.425ZM111.22 81.42C110.1 81.42 109.085 81.175 108.175 80.685C107.265 80.1717 106.542 79.4483 106.005 78.515C105.468 77.5817 105.2 76.4733 105.2 75.19C105.2 73.9067 105.468 72.81 106.005 71.9C106.542 70.9667 107.265 70.255 108.175 69.765C109.085 69.2517 110.112 68.995 111.255 68.995C112.375 68.995 113.378 69.2517 114.265 69.765C115.175 70.255 115.898 70.9667 116.435 71.9C116.972 72.81 117.24 73.9067 117.24 75.19C117.24 76.4733 116.972 77.5817 116.435 78.515C115.898 79.4483 115.175 80.1717 114.265 80.685C113.378 81.175 112.363 81.42 111.22 81.42ZM111.22 78.305C111.92 78.305 112.503 78.0483 112.97 77.535C113.46 76.9983 113.705 76.2167 113.705 75.19C113.705 74.1633 113.46 73.3817 112.97 72.845C112.503 72.3083 111.92 72.04 111.22 72.04C110.52 72.04 109.925 72.3083 109.435 72.845C108.968 73.3817 108.735 74.1633 108.735 75.19C108.735 76.2167 108.968 76.9983 109.435 77.535C109.925 78.0483 110.52 78.305 111.22 78.305Z" fill="white"/>
</svg>
