<svg width="144" height="144" viewBox="0 0 144 144" fill="none" xmlns="http://www.w3.org/2000/svg">
<circle cx="72" cy="72" r="64.5" stroke="#4DEE54" stroke-width="15"/>
<path d="M36.1873 81V77.745C37.6807 76.5083 39.1273 75.2833 40.5273 74.07C41.9507 72.8567 43.2107 71.655 44.3073 70.465C45.4273 69.275 46.314 68.12 46.9673 67C47.644 65.8567 47.9823 64.7483 47.9823 63.675C47.9823 62.6717 47.7023 61.785 47.1423 61.015C46.6057 60.245 45.7073 59.86 44.4473 59.86C43.164 59.86 42.1957 60.28 41.5423 61.12C40.889 61.96 40.5623 62.975 40.5623 64.165H36.2223C36.269 62.3683 36.6657 60.875 37.4123 59.685C38.159 58.4717 39.1507 57.5733 40.3873 56.99C41.624 56.3833 43.0123 56.08 44.5523 56.08C47.049 56.08 48.9857 56.7683 50.3623 58.145C51.7623 59.4983 52.4623 61.26 52.4623 63.43C52.4623 64.7833 52.1473 66.1017 51.5173 67.385C50.9107 68.6683 50.1057 69.905 49.1023 71.095C48.099 72.285 47.014 73.405 45.8473 74.455C44.6807 75.4817 43.549 76.4383 42.4523 77.325H53.0573V81H36.1873ZM66.6516 81.42C64.3882 81.42 62.4516 80.895 60.8416 79.845C59.2316 78.7717 57.9832 77.29 57.0966 75.4C56.2332 73.4867 55.8016 71.27 55.8016 68.75C55.8016 66.2533 56.2332 64.0483 57.0966 62.135C57.9832 60.2217 59.2316 58.74 60.8416 57.69C62.4516 56.6167 64.3882 56.08 66.6516 56.08C68.9149 56.08 70.8516 56.6167 72.4616 57.69C74.0716 58.74 75.3082 60.2217 76.1716 62.135C77.0582 64.0483 77.5016 66.2533 77.5016 68.75C77.5016 71.27 77.0582 73.4867 76.1716 75.4C75.3082 77.29 74.0716 78.7717 72.4616 79.845C70.8516 80.895 68.9149 81.42 66.6516 81.42ZM66.6516 77.395C68.4949 77.395 69.9999 76.625 71.1666 75.085C72.3332 73.545 72.9166 71.4333 72.9166 68.75C72.9166 66.0667 72.3332 63.955 71.1666 62.415C69.9999 60.875 68.4949 60.105 66.6516 60.105C64.7849 60.105 63.2682 60.875 62.1016 62.415C60.9582 63.955 60.3866 66.0667 60.3866 68.75C60.3866 71.4333 60.9582 73.545 62.1016 75.085C63.2682 76.625 64.7849 77.395 66.6516 77.395ZM86.4952 68.54C85.3752 68.54 84.3602 68.295 83.4502 67.805C82.5402 67.2917 81.8169 66.5683 81.2802 65.635C80.7435 64.7017 80.4752 63.5933 80.4752 62.31C80.4752 61.0267 80.7435 59.9183 81.2802 58.985C81.8169 58.0517 82.5402 57.34 83.4502 56.85C84.3602 56.3367 85.3869 56.08 86.5302 56.08C87.6502 56.08 88.6535 56.3367 89.5402 56.85C90.4502 57.34 91.1735 58.0517 91.7102 58.985C92.2469 59.9183 92.5152 61.0267 92.5152 62.31C92.5152 63.5933 92.2469 64.7017 91.7102 65.635C91.1735 66.5683 90.4502 67.2917 89.5402 67.805C88.6302 68.295 87.6152 68.54 86.4952 68.54ZM85.1652 81L98.9902 56.5H103.365L89.5402 81H85.1652ZM86.4952 65.425C87.1719 65.425 87.7552 65.1683 88.2452 64.655C88.7352 64.1183 88.9802 63.3367 88.9802 62.31C88.9802 61.2833 88.7352 60.5017 88.2452 59.965C87.7785 59.4283 87.1952 59.16 86.4952 59.16C85.7952 59.16 85.2002 59.4283 84.7102 59.965C84.2435 60.5017 84.0102 61.2833 84.0102 62.31C84.0102 63.3367 84.2435 64.1183 84.7102 64.655C85.2002 65.1683 85.7952 65.425 86.4952 65.425ZM102.175 81.42C101.055 81.42 100.04 81.175 99.1302 80.685C98.2202 80.1717 97.4969 79.4483 96.9602 78.515C96.4235 77.5817 96.1552 76.4733 96.1552 75.19C96.1552 73.9067 96.4235 72.81 96.9602 71.9C97.4969 70.9667 98.2202 70.255 99.1302 69.765C100.04 69.2517 101.067 68.995 102.21 68.995C103.33 68.995 104.334 69.2517 105.22 69.765C106.13 70.255 106.854 70.9667 107.39 71.9C107.927 72.81 108.195 73.9067 108.195 75.19C108.195 76.4733 107.927 77.5817 107.39 78.515C106.854 79.4483 106.13 80.1717 105.22 80.685C104.334 81.175 103.319 81.42 102.175 81.42ZM102.175 78.305C102.875 78.305 103.459 78.0483 103.925 77.535C104.415 76.9983 104.66 76.2167 104.66 75.19C104.66 74.1633 104.415 73.3817 103.925 72.845C103.459 72.3083 102.875 72.04 102.175 72.04C101.475 72.04 100.88 72.3083 100.39 72.845C99.9235 73.3817 99.6902 74.1633 99.6902 75.19C99.6902 76.2167 99.9235 76.9983 100.39 77.535C100.88 78.0483 101.475 78.305 102.175 78.305Z" fill="white"/>
</svg>
