<svg width="144" height="144" viewBox="0 0 144 144" fill="none" xmlns="http://www.w3.org/2000/svg">
<circle cx="72" cy="72" r="64.5" stroke="#4DEE54" stroke-width="15"/>
<path d="M44.7846 81.42C43.1746 81.42 41.7163 81.14 40.4096 80.58C39.103 79.9967 38.053 79.11 37.2596 77.92C36.4663 76.73 36.0463 75.2367 35.9996 73.44H40.4096C40.433 74.63 40.818 75.6333 41.5646 76.45C42.3346 77.2433 43.408 77.64 44.7846 77.64C46.0913 77.64 47.0946 77.2783 47.7946 76.555C48.4946 75.8317 48.8446 74.9217 48.8446 73.825C48.8446 72.5417 48.378 71.5733 47.4446 70.92C46.5346 70.2433 45.3563 69.905 43.9096 69.905H42.0896V66.23H43.9446C45.1346 66.23 46.1263 65.95 46.9196 65.39C47.713 64.83 48.1096 64.0017 48.1096 62.905C48.1096 61.995 47.8063 61.2717 47.1996 60.735C46.6163 60.175 45.7996 59.895 44.7496 59.895C43.6063 59.895 42.708 60.2333 42.0546 60.91C41.4246 61.5867 41.0746 62.415 41.0046 63.395H36.6296C36.723 61.1317 37.5046 59.3467 38.9746 58.04C40.468 56.7333 42.393 56.08 44.7496 56.08C46.4296 56.08 47.8413 56.3833 48.9846 56.99C50.1513 57.5733 51.0263 58.355 51.6096 59.335C52.2163 60.315 52.5196 61.4 52.5196 62.59C52.5196 63.9667 52.1346 65.1333 51.3646 66.09C50.618 67.0233 49.6846 67.6533 48.5646 67.98C49.9413 68.26 51.0613 68.9367 51.9247 70.01C52.788 71.06 53.2197 72.39 53.2197 74C53.2197 75.3533 52.893 76.59 52.2397 77.71C51.5863 78.83 50.6296 79.7283 49.3696 80.405C48.133 81.0817 46.6046 81.42 44.7846 81.42ZM67.6643 81.42C65.4009 81.42 63.4643 80.895 61.8543 79.845C60.2443 78.7717 58.9959 77.29 58.1093 75.4C57.2459 73.4867 56.8143 71.27 56.8143 68.75C56.8143 66.2533 57.2459 64.0483 58.1093 62.135C58.9959 60.2217 60.2443 58.74 61.8543 57.69C63.4643 56.6167 65.4009 56.08 67.6643 56.08C69.9276 56.08 71.8643 56.6167 73.4743 57.69C75.0843 58.74 76.3209 60.2217 77.1843 62.135C78.0709 64.0483 78.5143 66.2533 78.5143 68.75C78.5143 71.27 78.0709 73.4867 77.1843 75.4C76.3209 77.29 75.0843 78.7717 73.4743 79.845C71.8643 80.895 69.9276 81.42 67.6643 81.42ZM67.6643 77.395C69.5076 77.395 71.0126 76.625 72.1793 75.085C73.3459 73.545 73.9293 71.4333 73.9293 68.75C73.9293 66.0667 73.3459 63.955 72.1793 62.415C71.0126 60.875 69.5076 60.105 67.6643 60.105C65.7976 60.105 64.2809 60.875 63.1143 62.415C61.9709 63.955 61.3993 66.0667 61.3993 68.75C61.3993 71.4333 61.9709 73.545 63.1143 75.085C64.2809 76.625 65.7976 77.395 67.6643 77.395ZM87.5079 68.54C86.3879 68.54 85.3729 68.295 84.4629 67.805C83.5529 67.2917 82.8296 66.5683 82.2929 65.635C81.7562 64.7017 81.4879 63.5933 81.4879 62.31C81.4879 61.0267 81.7562 59.9183 82.2929 58.985C82.8296 58.0517 83.5529 57.34 84.4629 56.85C85.3729 56.3367 86.3996 56.08 87.5429 56.08C88.6629 56.08 89.6662 56.3367 90.5529 56.85C91.4629 57.34 92.1862 58.0517 92.7229 58.985C93.2596 59.9183 93.5279 61.0267 93.5279 62.31C93.5279 63.5933 93.2596 64.7017 92.7229 65.635C92.1862 66.5683 91.4629 67.2917 90.5529 67.805C89.6429 68.295 88.6279 68.54 87.5079 68.54ZM86.1779 81L100.003 56.5H104.378L90.5529 81H86.1779ZM87.5079 65.425C88.1846 65.425 88.7679 65.1683 89.2579 64.655C89.7479 64.1183 89.9929 63.3367 89.9929 62.31C89.9929 61.2833 89.7479 60.5017 89.2579 59.965C88.7912 59.4283 88.2079 59.16 87.5079 59.16C86.8079 59.16 86.2129 59.4283 85.7229 59.965C85.2562 60.5017 85.0229 61.2833 85.0229 62.31C85.0229 63.3367 85.2562 64.1183 85.7229 64.655C86.2129 65.1683 86.8079 65.425 87.5079 65.425ZM103.188 81.42C102.068 81.42 101.053 81.175 100.143 80.685C99.2329 80.1717 98.5096 79.4483 97.9729 78.515C97.4362 77.5817 97.1679 76.4733 97.1679 75.19C97.1679 73.9067 97.4362 72.81 97.9729 71.9C98.5096 70.9667 99.2329 70.255 100.143 69.765C101.053 69.2517 102.08 68.995 103.223 68.995C104.343 68.995 105.346 69.2517 106.233 69.765C107.143 70.255 107.866 70.9667 108.403 71.9C108.94 72.81 109.208 73.9067 109.208 75.19C109.208 76.4733 108.94 77.5817 108.403 78.515C107.866 79.4483 107.143 80.1717 106.233 80.685C105.346 81.175 104.331 81.42 103.188 81.42ZM103.188 78.305C103.888 78.305 104.471 78.0483 104.938 77.535C105.428 76.9983 105.673 76.2167 105.673 75.19C105.673 74.1633 105.428 73.3817 104.938 72.845C104.471 72.3083 103.888 72.04 103.188 72.04C102.488 72.04 101.893 72.3083 101.403 72.845C100.936 73.3817 100.703 74.1633 100.703 75.19C100.703 76.2167 100.936 76.9983 101.403 77.535C101.893 78.0483 102.488 78.305 103.188 78.305Z" fill="white"/>
</svg>
