<svg width="144" height="144" viewBox="0 0 144 144" fill="none" xmlns="http://www.w3.org/2000/svg">
<circle cx="72" cy="72" r="64.5" stroke="#4DEE54" stroke-width="15"/>
<path d="M46.6835 81V76.45H34.6085V72.88L46.0885 56.5H51.1635V72.565H54.3835V76.45H51.1635V81H46.6835ZM39.4035 72.565H46.9635V61.435L39.4035 72.565ZM67.9504 81.42C65.6871 81.42 63.7504 80.895 62.1404 79.845C60.5304 78.7717 59.2821 77.29 58.3954 75.4C57.5321 73.4867 57.1004 71.27 57.1004 68.75C57.1004 66.2533 57.5321 64.0483 58.3954 62.135C59.2821 60.2217 60.5304 58.74 62.1404 57.69C63.7504 56.6167 65.6871 56.08 67.9504 56.08C70.2137 56.08 72.1504 56.6167 73.7604 57.69C75.3704 58.74 76.6071 60.2217 77.4704 62.135C78.3571 64.0483 78.8004 66.2533 78.8004 68.75C78.8004 71.27 78.3571 73.4867 77.4704 75.4C76.6071 77.29 75.3704 78.7717 73.7604 79.845C72.1504 80.895 70.2137 81.42 67.9504 81.42ZM67.9504 77.395C69.7937 77.395 71.2987 76.625 72.4654 75.085C73.6321 73.545 74.2154 71.4333 74.2154 68.75C74.2154 66.0667 73.6321 63.955 72.4654 62.415C71.2987 60.875 69.7937 60.105 67.9504 60.105C66.0837 60.105 64.5671 60.875 63.4004 62.415C62.2571 63.955 61.6854 66.0667 61.6854 68.75C61.6854 71.4333 62.2571 73.545 63.4004 75.085C64.5671 76.625 66.0837 77.395 67.9504 77.395ZM87.794 68.54C86.674 68.54 85.659 68.295 84.749 67.805C83.839 67.2917 83.1157 66.5683 82.579 65.635C82.0424 64.7017 81.774 63.5933 81.774 62.31C81.774 61.0267 82.0424 59.9183 82.579 58.985C83.1157 58.0517 83.839 57.34 84.749 56.85C85.659 56.3367 86.6857 56.08 87.829 56.08C88.949 56.08 89.9524 56.3367 90.839 56.85C91.749 57.34 92.4724 58.0517 93.009 58.985C93.5457 59.9183 93.814 61.0267 93.814 62.31C93.814 63.5933 93.5457 64.7017 93.009 65.635C92.4724 66.5683 91.749 67.2917 90.839 67.805C89.929 68.295 88.914 68.54 87.794 68.54ZM86.464 81L100.289 56.5H104.664L90.839 81H86.464ZM87.794 65.425C88.4707 65.425 89.054 65.1683 89.544 64.655C90.034 64.1183 90.279 63.3367 90.279 62.31C90.279 61.2833 90.034 60.5017 89.544 59.965C89.0774 59.4283 88.494 59.16 87.794 59.16C87.094 59.16 86.499 59.4283 86.009 59.965C85.5424 60.5017 85.309 61.2833 85.309 62.31C85.309 63.3367 85.5424 64.1183 86.009 64.655C86.499 65.1683 87.094 65.425 87.794 65.425ZM103.474 81.42C102.354 81.42 101.339 81.175 100.429 80.685C99.519 80.1717 98.7957 79.4483 98.259 78.515C97.7224 77.5817 97.454 76.4733 97.454 75.19C97.454 73.9067 97.7224 72.81 98.259 71.9C98.7957 70.9667 99.519 70.255 100.429 69.765C101.339 69.2517 102.366 68.995 103.509 68.995C104.629 68.995 105.632 69.2517 106.519 69.765C107.429 70.255 108.152 70.9667 108.689 71.9C109.226 72.81 109.494 73.9067 109.494 75.19C109.494 76.4733 109.226 77.5817 108.689 78.515C108.152 79.4483 107.429 80.1717 106.519 80.685C105.632 81.175 104.617 81.42 103.474 81.42ZM103.474 78.305C104.174 78.305 104.757 78.0483 105.224 77.535C105.714 76.9983 105.959 76.2167 105.959 75.19C105.959 74.1633 105.714 73.3817 105.224 72.845C104.757 72.3083 104.174 72.04 103.474 72.04C102.774 72.04 102.179 72.3083 101.689 72.845C101.222 73.3817 100.989 74.1633 100.989 75.19C100.989 76.2167 101.222 76.9983 101.689 77.535C102.179 78.0483 102.774 78.305 103.474 78.305Z" fill="white"/>
</svg>
