<svg width="144" height="144" viewBox="0 0 144 144" fill="none" xmlns="http://www.w3.org/2000/svg">
<circle cx="72" cy="72" r="64.5" stroke="#4DEE54" stroke-width="15"/>
<path d="M44.6274 81.42C42.8307 81.42 41.2791 81.105 39.9724 80.475C38.6891 79.845 37.6741 78.9817 36.9274 77.885C36.2041 76.765 35.7841 75.505 35.6674 74.105H40.0424C40.2524 75.1083 40.7657 75.9483 41.5824 76.625C42.3991 77.2783 43.4141 77.605 44.6274 77.605C45.9341 77.605 46.9957 77.1267 47.8124 76.17C48.6524 75.2133 49.0724 74.0233 49.0724 72.6C49.0724 71.13 48.6524 69.9633 47.8124 69.1C46.9957 68.2367 45.9574 67.805 44.6974 67.805C43.6474 67.805 42.7374 68.0617 41.9674 68.575C41.1974 69.0883 40.6491 69.73 40.3224 70.5H36.0174L38.1174 56.5H51.6974V60.42H41.4774L40.3574 66.09C40.8707 65.53 41.5707 65.075 42.4574 64.725C43.3441 64.3517 44.3357 64.165 45.4324 64.165C47.1824 64.165 48.6407 64.5617 49.8074 65.355C50.9741 66.125 51.8607 67.1517 52.4674 68.435C53.0741 69.695 53.3774 71.0717 53.3774 72.565C53.3774 74.2683 53.0041 75.785 52.2574 77.115C51.5341 78.445 50.5074 79.495 49.1774 80.265C47.8707 81.035 46.3541 81.42 44.6274 81.42ZM67.5915 81.42C65.3282 81.42 63.3915 80.895 61.7815 79.845C60.1715 78.7717 58.9232 77.29 58.0365 75.4C57.1732 73.4867 56.7415 71.27 56.7415 68.75C56.7415 66.2533 57.1732 64.0483 58.0365 62.135C58.9232 60.2217 60.1715 58.74 61.7815 57.69C63.3915 56.6167 65.3282 56.08 67.5915 56.08C69.8548 56.08 71.7915 56.6167 73.4015 57.69C75.0115 58.74 76.2482 60.2217 77.1115 62.135C77.9982 64.0483 78.4415 66.2533 78.4415 68.75C78.4415 71.27 77.9982 73.4867 77.1115 75.4C76.2482 77.29 75.0115 78.7717 73.4015 79.845C71.7915 80.895 69.8548 81.42 67.5915 81.42ZM67.5915 77.395C69.4348 77.395 70.9398 76.625 72.1065 75.085C73.2732 73.545 73.8565 71.4333 73.8565 68.75C73.8565 66.0667 73.2732 63.955 72.1065 62.415C70.9398 60.875 69.4348 60.105 67.5915 60.105C65.7248 60.105 64.2082 60.875 63.0415 62.415C61.8982 63.955 61.3265 66.0667 61.3265 68.75C61.3265 71.4333 61.8982 73.545 63.0415 75.085C64.2082 76.625 65.7248 77.395 67.5915 77.395ZM87.4351 68.54C86.3151 68.54 85.3001 68.295 84.3901 67.805C83.4801 67.2917 82.7568 66.5683 82.2201 65.635C81.6835 64.7017 81.4151 63.5933 81.4151 62.31C81.4151 61.0267 81.6835 59.9183 82.2201 58.985C82.7568 58.0517 83.4801 57.34 84.3901 56.85C85.3001 56.3367 86.3268 56.08 87.4701 56.08C88.5901 56.08 89.5935 56.3367 90.4801 56.85C91.3901 57.34 92.1135 58.0517 92.6501 58.985C93.1868 59.9183 93.4551 61.0267 93.4551 62.31C93.4551 63.5933 93.1868 64.7017 92.6501 65.635C92.1135 66.5683 91.3901 67.2917 90.4801 67.805C89.5701 68.295 88.5551 68.54 87.4351 68.54ZM86.1051 81L99.9301 56.5H104.305L90.4801 81H86.1051ZM87.4351 65.425C88.1118 65.425 88.6951 65.1683 89.1851 64.655C89.6751 64.1183 89.9201 63.3367 89.9201 62.31C89.9201 61.2833 89.6751 60.5017 89.1851 59.965C88.7185 59.4283 88.1351 59.16 87.4351 59.16C86.7351 59.16 86.1401 59.4283 85.6501 59.965C85.1835 60.5017 84.9501 61.2833 84.9501 62.31C84.9501 63.3367 85.1835 64.1183 85.6501 64.655C86.1401 65.1683 86.7351 65.425 87.4351 65.425ZM103.115 81.42C101.995 81.42 100.98 81.175 100.07 80.685C99.1601 80.1717 98.4368 79.4483 97.9001 78.515C97.3635 77.5817 97.0951 76.4733 97.0951 75.19C97.0951 73.9067 97.3635 72.81 97.9001 71.9C98.4368 70.9667 99.1601 70.255 100.07 69.765C100.98 69.2517 102.007 68.995 103.15 68.995C104.27 68.995 105.273 69.2517 106.16 69.765C107.07 70.255 107.793 70.9667 108.33 71.9C108.867 72.81 109.135 73.9067 109.135 75.19C109.135 76.4733 108.867 77.5817 108.33 78.515C107.793 79.4483 107.07 80.1717 106.16 80.685C105.273 81.175 104.258 81.42 103.115 81.42ZM103.115 78.305C103.815 78.305 104.398 78.0483 104.865 77.535C105.355 76.9983 105.6 76.2167 105.6 75.19C105.6 74.1633 105.355 73.3817 104.865 72.845C104.398 72.3083 103.815 72.04 103.115 72.04C102.415 72.04 101.82 72.3083 101.33 72.845C100.863 73.3817 100.63 74.1633 100.63 75.19C100.63 76.2167 100.863 76.9983 101.33 77.535C101.82 78.0483 102.415 78.305 103.115 78.305Z" fill="white"/>
</svg>
