<svg width="144" height="144" viewBox="0 0 144 144" fill="none" xmlns="http://www.w3.org/2000/svg">
<circle cx="72" cy="72" r="64.5" stroke="#4DEE54" stroke-width="15"/>
<path d="M44.8081 81.42C42.9648 81.42 41.4131 81.0817 40.1531 80.405C38.8931 79.7283 37.8781 78.8183 37.1081 77.675C36.3381 76.5317 35.7781 75.26 35.4281 73.86C35.1015 72.46 34.9381 71.025 34.9381 69.555C34.9381 66.825 35.3231 64.4567 36.0931 62.45C36.8631 60.42 37.9715 58.8567 39.4181 57.76C40.8648 56.64 42.6148 56.08 44.6681 56.08C46.3481 56.08 47.7715 56.4183 48.9381 57.095C50.1281 57.7483 51.0498 58.6117 51.7031 59.685C52.3565 60.7583 52.7415 61.9133 52.8581 63.15H48.6931C48.4831 62.0767 48.0281 61.2483 47.3281 60.665C46.6281 60.0817 45.7298 59.79 44.6331 59.79C43.0698 59.79 41.8098 60.5133 40.8531 61.96C39.8965 63.3833 39.3831 65.565 39.3131 68.505C39.8731 67.5483 40.7131 66.755 41.8331 66.125C42.9531 65.495 44.2015 65.18 45.5781 65.18C46.9315 65.18 48.2031 65.5067 49.3931 66.16C50.5831 66.8133 51.5398 67.735 52.2631 68.925C53.0098 70.115 53.3831 71.515 53.3831 73.125C53.3831 74.595 53.0215 75.96 52.2981 77.22C51.5981 78.48 50.5948 79.495 49.2881 80.265C48.0048 81.035 46.5115 81.42 44.8081 81.42ZM44.5631 77.57C45.8698 77.57 46.9431 77.1733 47.7831 76.38C48.6465 75.5633 49.0781 74.5367 49.0781 73.3C49.0781 71.9933 48.6465 70.9433 47.7831 70.15C46.9198 69.3567 45.8231 68.96 44.4931 68.96C43.6298 68.96 42.8481 69.1583 42.1481 69.555C41.4715 69.9283 40.9348 70.4417 40.5381 71.095C40.1415 71.725 39.9431 72.4367 39.9431 73.23C39.9431 74.49 40.3748 75.5283 41.2381 76.345C42.1248 77.1617 43.2331 77.57 44.5631 77.57ZM67.8308 81.42C65.5674 81.42 63.6308 80.895 62.0208 79.845C60.4108 78.7717 59.1624 77.29 58.2758 75.4C57.4124 73.4867 56.9808 71.27 56.9808 68.75C56.9808 66.2533 57.4124 64.0483 58.2758 62.135C59.1624 60.2217 60.4108 58.74 62.0208 57.69C63.6308 56.6167 65.5674 56.08 67.8308 56.08C70.0941 56.08 72.0308 56.6167 73.6408 57.69C75.2508 58.74 76.4874 60.2217 77.3508 62.135C78.2374 64.0483 78.6808 66.2533 78.6808 68.75C78.6808 71.27 78.2374 73.4867 77.3508 75.4C76.4874 77.29 75.2508 78.7717 73.6408 79.845C72.0308 80.895 70.0941 81.42 67.8308 81.42ZM67.8308 77.395C69.6741 77.395 71.1791 76.625 72.3458 75.085C73.5124 73.545 74.0958 71.4333 74.0958 68.75C74.0958 66.0667 73.5124 63.955 72.3458 62.415C71.1791 60.875 69.6741 60.105 67.8308 60.105C65.9641 60.105 64.4474 60.875 63.2808 62.415C62.1374 63.955 61.5658 66.0667 61.5658 68.75C61.5658 71.4333 62.1374 73.545 63.2808 75.085C64.4474 76.625 65.9641 77.395 67.8308 77.395ZM87.6744 68.54C86.5544 68.54 85.5394 68.295 84.6294 67.805C83.7194 67.2917 82.9961 66.5683 82.4594 65.635C81.9227 64.7017 81.6544 63.5933 81.6544 62.31C81.6544 61.0267 81.9227 59.9183 82.4594 58.985C82.9961 58.0517 83.7194 57.34 84.6294 56.85C85.5394 56.3367 86.5661 56.08 87.7094 56.08C88.8294 56.08 89.8327 56.3367 90.7194 56.85C91.6294 57.34 92.3527 58.0517 92.8894 58.985C93.4261 59.9183 93.6944 61.0267 93.6944 62.31C93.6944 63.5933 93.4261 64.7017 92.8894 65.635C92.3527 66.5683 91.6294 67.2917 90.7194 67.805C89.8094 68.295 88.7944 68.54 87.6744 68.54ZM86.3444 81L100.169 56.5H104.544L90.7194 81H86.3444ZM87.6744 65.425C88.3511 65.425 88.9344 65.1683 89.4244 64.655C89.9144 64.1183 90.1594 63.3367 90.1594 62.31C90.1594 61.2833 89.9144 60.5017 89.4244 59.965C88.9577 59.4283 88.3744 59.16 87.6744 59.16C86.9744 59.16 86.3794 59.4283 85.8894 59.965C85.4227 60.5017 85.1894 61.2833 85.1894 62.31C85.1894 63.3367 85.4227 64.1183 85.8894 64.655C86.3794 65.1683 86.9744 65.425 87.6744 65.425ZM103.354 81.42C102.234 81.42 101.219 81.175 100.309 80.685C99.3994 80.1717 98.6761 79.4483 98.1394 78.515C97.6027 77.5817 97.3344 76.4733 97.3344 75.19C97.3344 73.9067 97.6027 72.81 98.1394 71.9C98.6761 70.9667 99.3994 70.255 100.309 69.765C101.219 69.2517 102.246 68.995 103.389 68.995C104.509 68.995 105.513 69.2517 106.399 69.765C107.309 70.255 108.033 70.9667 108.569 71.9C109.106 72.81 109.374 73.9067 109.374 75.19C109.374 76.4733 109.106 77.5817 108.569 78.515C108.033 79.4483 107.309 80.1717 106.399 80.685C105.513 81.175 104.498 81.42 103.354 81.42ZM103.354 78.305C104.054 78.305 104.638 78.0483 105.104 77.535C105.594 76.9983 105.839 76.2167 105.839 75.19C105.839 74.1633 105.594 73.3817 105.104 72.845C104.638 72.3083 104.054 72.04 103.354 72.04C102.654 72.04 102.059 72.3083 101.569 72.845C101.103 73.3817 100.869 74.1633 100.869 75.19C100.869 76.2167 101.103 76.9983 101.569 77.535C102.059 78.0483 102.654 78.305 103.354 78.305Z" fill="white"/>
</svg>
