<svg width="144" height="144" viewBox="0 0 144 144" fill="none" xmlns="http://www.w3.org/2000/svg">
<circle cx="72" cy="72" r="64.5" stroke="#4DEE54" stroke-width="15"/>
<path d="M38.8659 81L48.1059 60.315H36.0309V56.5H52.7259V59.685L43.5209 81H38.8659ZM65.968 81.42C63.7046 81.42 61.768 80.895 60.158 79.845C58.548 78.7717 57.2996 77.29 56.413 75.4C55.5496 73.4867 55.118 71.27 55.118 68.75C55.118 66.2533 55.5496 64.0483 56.413 62.135C57.2996 60.2217 58.548 58.74 60.158 57.69C61.768 56.6167 63.7046 56.08 65.968 56.08C68.2313 56.08 70.168 56.6167 71.778 57.69C73.388 58.74 74.6246 60.2217 75.488 62.135C76.3746 64.0483 76.818 66.2533 76.818 68.75C76.818 71.27 76.3746 73.4867 75.488 75.4C74.6246 77.29 73.388 78.7717 71.778 79.845C70.168 80.895 68.2313 81.42 65.968 81.42ZM65.968 77.395C67.8113 77.395 69.3163 76.625 70.483 75.085C71.6496 73.545 72.233 71.4333 72.233 68.75C72.233 66.0667 71.6496 63.955 70.483 62.415C69.3163 60.875 67.8113 60.105 65.968 60.105C64.1013 60.105 62.5846 60.875 61.418 62.415C60.2746 63.955 59.703 66.0667 59.703 68.75C59.703 71.4333 60.2746 73.545 61.418 75.085C62.5846 76.625 64.1013 77.395 65.968 77.395ZM85.8116 68.54C84.6916 68.54 83.6766 68.295 82.7666 67.805C81.8566 67.2917 81.1333 66.5683 80.5966 65.635C80.0599 64.7017 79.7916 63.5933 79.7916 62.31C79.7916 61.0267 80.0599 59.9183 80.5966 58.985C81.1333 58.0517 81.8566 57.34 82.7666 56.85C83.6766 56.3367 84.7033 56.08 85.8466 56.08C86.9666 56.08 87.9699 56.3367 88.8566 56.85C89.7666 57.34 90.4899 58.0517 91.0266 58.985C91.5633 59.9183 91.8316 61.0267 91.8316 62.31C91.8316 63.5933 91.5633 64.7017 91.0266 65.635C90.4899 66.5683 89.7666 67.2917 88.8566 67.805C87.9466 68.295 86.9316 68.54 85.8116 68.54ZM84.4816 81L98.3066 56.5H102.682L88.8566 81H84.4816ZM85.8116 65.425C86.4883 65.425 87.0716 65.1683 87.5616 64.655C88.0516 64.1183 88.2966 63.3367 88.2966 62.31C88.2966 61.2833 88.0516 60.5017 87.5616 59.965C87.0949 59.4283 86.5116 59.16 85.8116 59.16C85.1116 59.16 84.5166 59.4283 84.0266 59.965C83.5599 60.5017 83.3266 61.2833 83.3266 62.31C83.3266 63.3367 83.5599 64.1183 84.0266 64.655C84.5166 65.1683 85.1116 65.425 85.8116 65.425ZM101.492 81.42C100.372 81.42 99.3566 81.175 98.4466 80.685C97.5366 80.1717 96.8133 79.4483 96.2766 78.515C95.7399 77.5817 95.4716 76.4733 95.4716 75.19C95.4716 73.9067 95.7399 72.81 96.2766 71.9C96.8133 70.9667 97.5366 70.255 98.4466 69.765C99.3566 69.2517 100.383 68.995 101.527 68.995C102.647 68.995 103.65 69.2517 104.537 69.765C105.447 70.255 106.17 70.9667 106.707 71.9C107.243 72.81 107.512 73.9067 107.512 75.19C107.512 76.4733 107.243 77.5817 106.707 78.515C106.17 79.4483 105.447 80.1717 104.537 80.685C103.65 81.175 102.635 81.42 101.492 81.42ZM101.492 78.305C102.192 78.305 102.775 78.0483 103.242 77.535C103.732 76.9983 103.977 76.2167 103.977 75.19C103.977 74.1633 103.732 73.3817 103.242 72.845C102.775 72.3083 102.192 72.04 101.492 72.04C100.792 72.04 100.197 72.3083 99.7066 72.845C99.2399 73.3817 99.0066 74.1633 99.0066 75.19C99.0066 76.2167 99.2399 76.9983 99.7066 77.535C100.197 78.0483 100.792 78.305 101.492 78.305Z" fill="white"/>
</svg>
