<svg width="144" height="144" viewBox="0 0 144 144" fill="none" xmlns="http://www.w3.org/2000/svg">
<circle cx="72" cy="72" r="64.5" stroke="#4DEE54" stroke-width="15"/>
<path d="M44.3336 81.42C42.6536 81.42 41.1369 81.1283 39.7836 80.545C38.4303 79.9383 37.3453 79.0867 36.5286 77.99C35.7353 76.8933 35.3386 75.6217 35.3386 74.175C35.3386 72.6817 35.7236 71.375 36.4936 70.255C37.2869 69.135 38.3253 68.33 39.6086 67.84C38.4886 67.35 37.6019 66.65 36.9486 65.74C36.2953 64.8067 35.9686 63.7683 35.9686 62.625C35.9686 61.4583 36.2836 60.385 36.9136 59.405C37.5436 58.4017 38.4769 57.5967 39.7136 56.99C40.9736 56.3833 42.5136 56.08 44.3336 56.08C46.1536 56.08 47.6819 56.3833 48.9186 56.99C50.1553 57.5967 51.0886 58.4017 51.7186 59.405C52.3486 60.385 52.6636 61.4583 52.6636 62.625C52.6636 63.745 52.3253 64.7833 51.6486 65.74C50.9953 66.6733 50.1203 67.3733 49.0236 67.84C50.3303 68.33 51.3686 69.135 52.1386 70.255C52.9086 71.375 53.2936 72.6817 53.2936 74.175C53.2936 75.6217 52.8969 76.8933 52.1036 77.99C51.3103 79.0867 50.2253 79.9383 48.8486 80.545C47.4953 81.1283 45.9903 81.42 44.3336 81.42ZM44.3336 66.51C45.5469 66.51 46.5036 66.195 47.2036 65.565C47.9036 64.935 48.2536 64.13 48.2536 63.15C48.2536 62.0767 47.9036 61.2367 47.2036 60.63C46.5269 60.0233 45.5703 59.72 44.3336 59.72C43.0736 59.72 42.1053 60.0233 41.4286 60.63C40.7519 61.2367 40.4136 62.0767 40.4136 63.15C40.4136 64.1533 40.7519 64.97 41.4286 65.6C42.1286 66.2067 43.0969 66.51 44.3336 66.51ZM44.3336 77.675C45.8269 77.675 46.9586 77.3133 47.7286 76.59C48.4986 75.8433 48.8836 74.91 48.8836 73.79C48.8836 72.5533 48.4753 71.585 47.6586 70.885C46.8653 70.185 45.7569 69.835 44.3336 69.835C42.9103 69.835 41.7786 70.185 40.9386 70.885C40.1219 71.585 39.7136 72.5533 39.7136 73.79C39.7136 74.91 40.0986 75.8433 40.8686 76.59C41.6619 77.3133 42.8169 77.675 44.3336 77.675ZM67.7453 81.42C65.482 81.42 63.5453 80.895 61.9353 79.845C60.3253 78.7717 59.077 77.29 58.1903 75.4C57.327 73.4867 56.8953 71.27 56.8953 68.75C56.8953 66.2533 57.327 64.0483 58.1903 62.135C59.077 60.2217 60.3253 58.74 61.9353 57.69C63.5453 56.6167 65.482 56.08 67.7453 56.08C70.0086 56.08 71.9453 56.6167 73.5553 57.69C75.1653 58.74 76.402 60.2217 77.2653 62.135C78.152 64.0483 78.5953 66.2533 78.5953 68.75C78.5953 71.27 78.152 73.4867 77.2653 75.4C76.402 77.29 75.1653 78.7717 73.5553 79.845C71.9453 80.895 70.0086 81.42 67.7453 81.42ZM67.7453 77.395C69.5886 77.395 71.0936 76.625 72.2603 75.085C73.427 73.545 74.0103 71.4333 74.0103 68.75C74.0103 66.0667 73.427 63.955 72.2603 62.415C71.0936 60.875 69.5886 60.105 67.7453 60.105C65.8786 60.105 64.362 60.875 63.1953 62.415C62.052 63.955 61.4803 66.0667 61.4803 68.75C61.4803 71.4333 62.052 73.545 63.1953 75.085C64.362 76.625 65.8786 77.395 67.7453 77.395ZM87.5889 68.54C86.4689 68.54 85.4539 68.295 84.5439 67.805C83.6339 67.2917 82.9106 66.5683 82.3739 65.635C81.8373 64.7017 81.5689 63.5933 81.5689 62.31C81.5689 61.0267 81.8373 59.9183 82.3739 58.985C82.9106 58.0517 83.6339 57.34 84.5439 56.85C85.4539 56.3367 86.4806 56.08 87.6239 56.08C88.7439 56.08 89.7473 56.3367 90.6339 56.85C91.5439 57.34 92.2673 58.0517 92.8039 58.985C93.3406 59.9183 93.6089 61.0267 93.6089 62.31C93.6089 63.5933 93.3406 64.7017 92.8039 65.635C92.2673 66.5683 91.5439 67.2917 90.6339 67.805C89.7239 68.295 88.7089 68.54 87.5889 68.54ZM86.2589 81L100.084 56.5H104.459L90.6339 81H86.2589ZM87.5889 65.425C88.2656 65.425 88.8489 65.1683 89.3389 64.655C89.8289 64.1183 90.0739 63.3367 90.0739 62.31C90.0739 61.2833 89.8289 60.5017 89.3389 59.965C88.8723 59.4283 88.2889 59.16 87.5889 59.16C86.8889 59.16 86.2939 59.4283 85.8039 59.965C85.3373 60.5017 85.1039 61.2833 85.1039 62.31C85.1039 63.3367 85.3373 64.1183 85.8039 64.655C86.2939 65.1683 86.8889 65.425 87.5889 65.425ZM103.269 81.42C102.149 81.42 101.134 81.175 100.224 80.685C99.3139 80.1717 98.5906 79.4483 98.0539 78.515C97.5173 77.5817 97.2489 76.4733 97.2489 75.19C97.2489 73.9067 97.5173 72.81 98.0539 71.9C98.5906 70.9667 99.3139 70.255 100.224 69.765C101.134 69.2517 102.161 68.995 103.304 68.995C104.424 68.995 105.427 69.2517 106.314 69.765C107.224 70.255 107.947 70.9667 108.484 71.9C109.021 72.81 109.289 73.9067 109.289 75.19C109.289 76.4733 109.021 77.5817 108.484 78.515C107.947 79.4483 107.224 80.1717 106.314 80.685C105.427 81.175 104.412 81.42 103.269 81.42ZM103.269 78.305C103.969 78.305 104.552 78.0483 105.019 77.535C105.509 76.9983 105.754 76.2167 105.754 75.19C105.754 74.1633 105.509 73.3817 105.019 72.845C104.552 72.3083 103.969 72.04 103.269 72.04C102.569 72.04 101.974 72.3083 101.484 72.845C101.017 73.3817 100.784 74.1633 100.784 75.19C100.784 76.2167 101.017 76.9983 101.484 77.535C101.974 78.0483 102.569 78.305 103.269 78.305Z" fill="white"/>
</svg>
