<svg width="144" height="144" viewBox="0 0 144 144" fill="none" xmlns="http://www.w3.org/2000/svg">
<circle cx="72" cy="72" r="64.5" stroke="#4DEE54" stroke-width="15"/>
<path d="M43.9681 81.42C42.2648 81.42 40.8298 81.0933 39.6631 80.44C38.4965 79.7633 37.5865 78.8883 36.9331 77.815C36.2798 76.7417 35.8948 75.5867 35.7781 74.35H39.9431C40.1298 75.4233 40.5731 76.2517 41.2731 76.835C41.9965 77.4183 42.9065 77.71 44.0031 77.71C45.5665 77.71 46.8265 76.9983 47.7831 75.575C48.7398 74.1283 49.2531 71.935 49.3231 68.995C48.7631 69.9517 47.9115 70.745 46.7681 71.375C45.6481 72.005 44.4115 72.32 43.0581 72.32C41.7048 72.32 40.4331 71.9933 39.2431 71.34C38.0531 70.6867 37.0848 69.765 36.3381 68.575C35.5915 67.385 35.2181 65.985 35.2181 64.375C35.2181 62.905 35.5798 61.54 36.3031 60.28C37.0265 59.02 38.0298 58.005 39.3131 57.235C40.5965 56.465 42.1015 56.08 43.8281 56.08C45.6715 56.08 47.2231 56.4183 48.4831 57.095C49.7431 57.7717 50.7465 58.6817 51.4931 59.825C52.2631 60.9683 52.8115 62.24 53.1381 63.64C53.4881 65.04 53.6631 66.475 53.6631 67.945C53.6631 70.675 53.2781 73.055 52.5081 75.085C51.7615 77.0917 50.6531 78.655 49.1831 79.775C47.7365 80.8717 45.9981 81.42 43.9681 81.42ZM44.1081 68.54C44.9715 68.54 45.7531 68.3533 46.4531 67.98C47.1531 67.5833 47.7015 67.07 48.0981 66.44C48.4948 65.7867 48.6931 65.0633 48.6931 64.27C48.6931 63.01 48.2498 61.9717 47.3631 61.155C46.4998 60.3383 45.4031 59.93 44.0731 59.93C42.7665 59.93 41.6815 60.3383 40.8181 61.155C39.9548 61.9483 39.5231 62.9633 39.5231 64.2C39.5231 65.5067 39.9548 66.5567 40.8181 67.35C41.6815 68.1433 42.7781 68.54 44.1081 68.54ZM67.8308 81.42C65.5674 81.42 63.6308 80.895 62.0208 79.845C60.4108 78.7717 59.1624 77.29 58.2758 75.4C57.4124 73.4867 56.9808 71.27 56.9808 68.75C56.9808 66.2533 57.4124 64.0483 58.2758 62.135C59.1624 60.2217 60.4108 58.74 62.0208 57.69C63.6308 56.6167 65.5674 56.08 67.8308 56.08C70.0941 56.08 72.0308 56.6167 73.6408 57.69C75.2508 58.74 76.4874 60.2217 77.3508 62.135C78.2374 64.0483 78.6808 66.2533 78.6808 68.75C78.6808 71.27 78.2374 73.4867 77.3508 75.4C76.4874 77.29 75.2508 78.7717 73.6408 79.845C72.0308 80.895 70.0941 81.42 67.8308 81.42ZM67.8308 77.395C69.6741 77.395 71.1791 76.625 72.3458 75.085C73.5124 73.545 74.0958 71.4333 74.0958 68.75C74.0958 66.0667 73.5124 63.955 72.3458 62.415C71.1791 60.875 69.6741 60.105 67.8308 60.105C65.9641 60.105 64.4474 60.875 63.2808 62.415C62.1374 63.955 61.5658 66.0667 61.5658 68.75C61.5658 71.4333 62.1374 73.545 63.2808 75.085C64.4474 76.625 65.9641 77.395 67.8308 77.395ZM87.6744 68.54C86.5544 68.54 85.5394 68.295 84.6294 67.805C83.7194 67.2917 82.9961 66.5683 82.4594 65.635C81.9227 64.7017 81.6544 63.5933 81.6544 62.31C81.6544 61.0267 81.9227 59.9183 82.4594 58.985C82.9961 58.0517 83.7194 57.34 84.6294 56.85C85.5394 56.3367 86.5661 56.08 87.7094 56.08C88.8294 56.08 89.8327 56.3367 90.7194 56.85C91.6294 57.34 92.3527 58.0517 92.8894 58.985C93.4261 59.9183 93.6944 61.0267 93.6944 62.31C93.6944 63.5933 93.4261 64.7017 92.8894 65.635C92.3527 66.5683 91.6294 67.2917 90.7194 67.805C89.8094 68.295 88.7944 68.54 87.6744 68.54ZM86.3444 81L100.169 56.5H104.544L90.7194 81H86.3444ZM87.6744 65.425C88.3511 65.425 88.9344 65.1683 89.4244 64.655C89.9144 64.1183 90.1594 63.3367 90.1594 62.31C90.1594 61.2833 89.9144 60.5017 89.4244 59.965C88.9577 59.4283 88.3744 59.16 87.6744 59.16C86.9744 59.16 86.3794 59.4283 85.8894 59.965C85.4227 60.5017 85.1894 61.2833 85.1894 62.31C85.1894 63.3367 85.4227 64.1183 85.8894 64.655C86.3794 65.1683 86.9744 65.425 87.6744 65.425ZM103.354 81.42C102.234 81.42 101.219 81.175 100.309 80.685C99.3994 80.1717 98.6761 79.4483 98.1394 78.515C97.6027 77.5817 97.3344 76.4733 97.3344 75.19C97.3344 73.9067 97.6027 72.81 98.1394 71.9C98.6761 70.9667 99.3994 70.255 100.309 69.765C101.219 69.2517 102.246 68.995 103.389 68.995C104.509 68.995 105.513 69.2517 106.399 69.765C107.309 70.255 108.033 70.9667 108.569 71.9C109.106 72.81 109.374 73.9067 109.374 75.19C109.374 76.4733 109.106 77.5817 108.569 78.515C108.033 79.4483 107.309 80.1717 106.399 80.685C105.513 81.175 104.498 81.42 103.354 81.42ZM103.354 78.305C104.054 78.305 104.638 78.0483 105.104 77.535C105.594 76.9983 105.839 76.2167 105.839 75.19C105.839 74.1633 105.594 73.3817 105.104 72.845C104.638 72.3083 104.054 72.04 103.354 72.04C102.654 72.04 102.059 72.3083 101.569 72.845C101.103 73.3817 100.869 74.1633 100.869 75.19C100.869 76.2167 101.103 76.9983 101.569 77.535C102.059 78.0483 102.654 78.305 103.354 78.305Z" fill="white"/>
</svg>
