<svg width="1354" height="1434" viewBox="0 0 1354 1434" fill="none" xmlns="http://www.w3.org/2000/svg">
<path d="M1037.78 0.59172C1034.85 1.25839 1019.25 6.32505 1003.11 11.9251C964.981 25.1251 812.581 77.925 738.448 103.525C702.448 115.925 678.714 124.725 676.048 126.858C673.514 128.725 527.514 293.525 351.381 493.125C175.381 692.592 25.6479 862.192 18.8479 869.925C12.0479 877.658 5.11453 886.592 3.51453 889.792C-0.485471 897.925 -1.0188 908.058 1.64786 920.325C5.11453 935.525 7.24786 940.592 12.7145 946.858C22.8479 958.192 556.048 1427.12 562.314 1430.19C571.648 1434.86 585.914 1434.59 596.181 1429.39C603.648 1425.79 621.514 1405.79 936.848 1048.46C1163.91 791.258 1270.98 669.125 1273.38 664.325C1276.05 658.992 1280.05 642.725 1289.11 599.258C1295.78 567.392 1312.71 487.258 1326.58 421.258C1356.85 277.792 1354.45 290.592 1353.11 283.258C1348.31 258.325 1347.11 255.792 1333.51 243.525C1270.18 186.325 1063.25 5.12505 1059.11 3.25839C1052.18 0.19172 1044.45 -0.741614 1037.78 0.59172ZM1053.25 252.592C1076.31 259.658 1094.85 278.458 1101.78 301.525C1113.65 340.858 1087.91 383.258 1047.11 391.925C1035.38 394.325 1029.51 394.325 1017.78 391.925C1003.91 388.992 992.848 382.992 982.448 372.725C953.914 344.725 953.381 299.392 981.114 271.125C989.648 262.458 998.314 257.125 1010.45 252.992C1022.05 248.992 1041.25 248.858 1053.25 252.592Z" fill="#4DEE54"/>
<path d="M822.264 733.169L659.119 591.608L454.994 662.068L414.007 874.091L577.153 1015.65L781.285 945.191L822.264 733.169Z" fill="#000904"/>
</svg>
