<svg width="999" height="845" viewBox="0 0 999 845" fill="none" xmlns="http://www.w3.org/2000/svg">
<path d="M998.999 806.591C998.998 816.778 994.95 826.547 987.744 833.75C980.538 840.953 970.766 845 960.575 845H38.4216C28.2313 845 18.4586 840.953 11.2529 833.75C4.04732 826.547 -0.000968104 816.778 -0.00146484 806.591V38.4091C-0.00146484 28.2224 4.04667 18.4529 11.2524 11.2498C18.4581 4.04667 28.2312 0 38.4216 0C48.612 0 58.3851 4.04667 65.5908 11.2498C72.7966 18.4529 76.8447 28.2224 76.8447 38.4091V560.237L318.649 318.521C325.856 311.318 335.629 307.272 345.82 307.272C356.011 307.272 365.785 311.318 372.991 318.521L499.513 445.001L733.346 211.25L664.457 142.386C659.084 137.014 655.426 130.17 653.944 122.72C652.462 115.269 653.223 107.547 656.132 100.529C659.04 93.511 663.964 87.5126 670.282 83.2922C676.601 79.0718 684.029 76.8188 691.628 76.8182H883.743C893.934 76.8187 903.706 80.8655 910.912 88.0685C918.118 95.2715 922.166 105.041 922.166 115.227V307.273C922.166 314.869 919.913 322.296 915.69 328.612C911.468 334.928 905.467 339.851 898.446 342.758C891.425 345.665 883.699 346.426 876.246 344.944C868.792 343.462 861.946 339.803 856.572 334.432L787.686 265.57L526.684 526.48C519.477 533.682 509.703 537.729 499.513 537.729C489.322 537.729 479.548 533.682 472.342 526.48L345.82 399.999L76.8447 668.882V768.182H960.575C970.766 768.182 980.538 772.229 987.744 779.432C994.95 786.635 998.998 796.404 998.999 806.591Z" fill="#4DEE54"/>
</svg>
