<svg width="949" height="880" viewBox="0 0 949 880" fill="none" xmlns="http://www.w3.org/2000/svg">
<path d="M132.406 878.95C140.22 883.104 148.463 874.108 143.679 866.662C117.71 826.245 93.1192 758.235 132.298 670.646C197.634 524.585 237.391 448.935 237.391 448.935C237.391 448.935 258.538 537.217 315.861 615.713C371.031 691.259 401.228 786.273 352.546 865.424C347.977 872.853 356.033 881.618 363.797 877.645C424.058 846.819 491.648 784.985 499.274 661.936C502.086 624.336 497.869 571.696 476.783 505.268C449.67 421.077 416.339 381.792 397.054 364.922C391.286 359.875 382.314 364.348 382.788 371.997C388.407 462.839 354.232 485.892 334.78 433.94C327.011 413.19 322.48 377.299 322.48 333.592C322.48 260.827 301.369 185.923 254.827 125.055C242.723 109.226 228.561 94.4349 212.313 81.8218C206.43 77.2544 197.904 81.8453 198.442 89.2728C202.016 138.601 198.778 279.972 74.7506 448.867C-37.7058 605.535 5.87071 725.856 21.3335 758.444C50.8969 820.874 92.1336 857.537 132.406 878.95Z" fill="#4DEE54"/>
<path d="M583.412 878.956C591.168 883.079 599.349 874.151 594.601 866.761C568.827 826.647 544.421 759.147 583.306 672.215C648.152 527.249 687.61 452.167 687.61 452.167C687.61 452.167 708.598 539.787 765.491 617.694C820.247 692.674 850.218 786.974 801.901 865.532C797.367 872.905 805.362 881.604 813.068 877.662C872.877 847.067 939.96 785.696 947.529 663.571C950.319 626.253 946.134 574.007 925.206 508.078C898.297 424.519 865.216 385.528 846.076 368.784C840.35 363.775 831.446 368.215 831.916 375.807C837.494 465.967 803.575 488.847 784.268 437.285C776.558 416.69 772.061 381.069 772.061 337.69C772.061 265.471 751.108 191.128 704.915 130.717C692.903 115.006 678.847 100.327 662.72 87.8081C656.882 83.275 648.419 87.8314 648.954 95.2032C652.501 144.161 649.287 284.472 526.19 452.1C414.577 607.593 457.827 727.01 473.173 759.354C502.515 821.316 543.442 857.704 583.412 878.956Z" fill="#4DEE54"/>
<path d="M406.649 637.496C412.884 640.81 419.461 633.632 415.644 627.691C394.923 595.442 375.301 541.175 406.563 471.287C458.696 354.742 490.419 294.379 490.419 294.379C490.419 294.379 507.292 364.821 553.031 427.454C597.052 487.734 621.147 563.547 582.302 626.703C578.657 632.631 585.085 639.625 591.28 636.455C639.363 611.858 693.294 562.519 699.379 464.337C701.623 434.335 698.258 392.332 681.433 339.329C659.799 272.151 633.204 240.805 617.816 227.344C613.214 223.317 606.055 226.886 606.433 232.99C610.917 305.474 583.648 323.868 568.126 282.415C561.928 265.858 558.313 237.22 558.313 202.345C558.313 144.285 541.468 84.5174 504.331 35.9498C494.673 23.3197 483.373 11.5178 470.408 1.45361C465.714 -2.19074 458.911 1.47239 459.34 7.39888C462.192 46.7587 459.609 159.561 360.645 294.325C270.914 419.333 305.684 515.339 318.022 541.342C341.612 591.156 374.515 620.41 406.649 637.496Z" fill="#4DEE54"/>
</svg>
