<svg xmlns="http://www.w3.org/2000/svg" viewBox="0 0 2247.11 271.19"><defs><style>.cls-1{fill:#000904;}.cls-2{fill:#4dee54;}</style></defs><g id="Layer_2" data-name="Layer 2"><g id="Layer_1-2" data-name="Layer 1"><circle class="cls-1" cx="135.6" cy="135.6" r="135.6"/><polygon class="cls-2" points="218.41 182.14 218.41 86.51 135.6 38.7 52.78 86.51 52.78 182.14 135.6 229.96 218.41 182.14"/><path class="cls-2" d="M450.35,86.06V24.63h41.2V202.91h-41.2V183.39q-14.94,21.21-39.51,21.2a57.55,57.55,0,0,1-30.72-8.67,61.05,61.05,0,0,1-22.28-24.33q-8.2-15.66-8.19-35.66t8.19-35.65a62,62,0,0,1,22.28-24.46A57,57,0,0,1,410.84,67Q436.61,67,450.35,86.06Zm-43.49,20.36a28.1,28.1,0,0,0-11.08,11.2q-4.21,7.47-4.21,18.31t4.21,18.19a28.48,28.48,0,0,0,11,11.08,28.66,28.66,0,0,0,28.31,0A28,28,0,0,0,446.13,154q4.22-7.47,4.22-18.31t-4.22-18.19a28.48,28.48,0,0,0-11-11.08,28.66,28.66,0,0,0-28.31,0Z"/><path class="cls-2" d="M654.89,149.18H562.38a22.22,22.22,0,0,0,8,14.58q6.74,5.66,16.86,5.66,7.71,0,11.56-2.29a32.76,32.76,0,0,0,8.2-7.59h44.57a59.12,59.12,0,0,1-23.13,32.65q-17.35,12.41-41.2,12.4-19.28,0-34.57-8.43A59.18,59.18,0,0,1,528.77,172q-8.55-15.78-8.55-36.5t8.55-36.26A59,59,0,0,1,552.5,75.34Q567.68,67,587,67q19.51,0,35.17,8.07a59.53,59.53,0,0,1,24.7,23.73q9,15.66,9,37.34A82.71,82.71,0,0,1,654.89,149.18ZM613,123.4a21.93,21.93,0,0,0-8.19-15.3q-7.23-5.89-17.83-5.9a23.36,23.36,0,0,0-15.9,5.9,25.69,25.69,0,0,0-8.43,15.3Z"/><path class="cls-2" d="M783.54,79.19q17.1,12.18,22.64,34.82H761.61q-5.77-12-19.75-12.05-12.29,0-18.67,9.28t-6.39,24.45q0,15.18,6.39,24.45t18.67,9.28q7.71,0,12-2.65t7.71-9.4h44.57q-5.53,21.69-22.88,34.45t-41.44,12.77q-19.27,0-34.57-8.43a59.25,59.25,0,0,1-23.85-24.09q-8.57-15.66-8.56-36.38t8.56-36.26a59.44,59.44,0,0,1,23.85-24Q722.58,67,741.86,67,766.43,67,783.54,79.19Z"/><path class="cls-2" d="M956.51,149.18H864a22.22,22.22,0,0,0,8,14.58q6.75,5.66,16.87,5.66,7.7,0,11.56-2.29a32.74,32.74,0,0,0,8.19-7.59h44.57A59,59,0,0,1,930,192.19q-17.34,12.41-41.19,12.4-19.29,0-34.58-8.43A59.18,59.18,0,0,1,830.39,172q-8.55-15.78-8.55-36.5t8.55-36.26a59,59,0,0,1,23.73-23.85Q869.3,67,888.57,67q19.51,0,35.18,8.07a59.5,59.5,0,0,1,24.69,23.73q9,15.66,9,37.34A82.67,82.67,0,0,1,956.51,149.18ZM914.59,123.4a21.9,21.9,0,0,0-8.19-15.3q-7.23-5.89-17.83-5.9a23.4,23.4,0,0,0-15.9,5.9,25.74,25.74,0,0,0-8.43,15.3Z"/><path class="cls-2" d="M1095.16,73.89a47.35,47.35,0,0,1,18.31,19.88q6.63,13,6.63,30.6v78.54h-41v-73q0-13-6.87-20.12t-18.91-7.11q-12,0-18.91,7.11t-6.87,20.12v73H986.39V68.47h41.19V88.23a42.86,42.86,0,0,1,16.5-15.54Q1054.57,67,1068.3,67,1083.48,67,1095.16,73.89Z"/><path class="cls-2" d="M1229.23,168v34.94h-21q-22.65,0-35-10t-12.41-34.33v-55.9h-12.53V68.47h12.53V35.71H1202V68.47h27v34.21h-27v55.9q0,4.81,2.89,7.1c1.92,1.53,5.14,2.29,9.63,2.29Z"/><path class="cls-2" d="M1317.65,74.14A36.64,36.64,0,0,1,1339.57,67V109h-10.12q-14.22,0-21.32,6.74T1301,139.3v63.61h-41.19V68.47H1301V93.53A57.3,57.3,0,0,1,1317.65,74.14Z"/><path class="cls-2" d="M1460.39,75.34a63.22,63.22,0,0,1,25.42,23.85q9.39,15.54,9.39,36.26t-9.27,36.38A64,64,0,0,1,1460.75,196a73.55,73.55,0,0,1-35.41,8.55,75,75,0,0,1-35.66-8.55,64.45,64.45,0,0,1-25.54-24.21q-9.39-15.66-9.39-36.38t9.39-36.26a63.22,63.22,0,0,1,25.42-23.85,79.62,79.62,0,0,1,70.83,0ZM1405,110.76q-8.31,8.55-8.31,24.93t8.55,25.06a27.35,27.35,0,0,0,20.12,8.67,26.18,26.18,0,0,0,19.75-8.67q8.19-8.69,8.19-25.06t-8.43-24.93q-8.43-8.55-19.75-8.56A27,27,0,0,0,1405,110.76Z"/><path class="cls-2" d="M1632.89,73.89a47.35,47.35,0,0,1,18.31,19.88q6.61,13,6.62,30.6v78.54h-41v-73q0-13-6.87-20.12t-18.91-7.11q-12.06,0-18.91,7.11t-6.87,20.12v73h-41.2V68.47h41.2V88.23a42.79,42.79,0,0,1,16.5-15.54Q1592.3,67,1606,67,1621.2,67,1632.89,73.89Z"/><path class="cls-2" d="M1820,149.18h-92.51a22.22,22.22,0,0,0,8,14.58q6.74,5.66,16.86,5.66,7.71,0,11.57-2.29a32.91,32.91,0,0,0,8.19-7.59h44.57a59.12,59.12,0,0,1-23.13,32.65q-17.34,12.41-41.2,12.4-19.27,0-34.57-8.43A59.18,59.18,0,0,1,1693.84,172q-8.55-15.78-8.55-36.5t8.55-36.26a59,59,0,0,1,23.73-23.85Q1732.75,67,1752,67q19.51,0,35.18,8.07a59.56,59.56,0,0,1,24.69,23.73q9,15.66,9,37.34A82.71,82.71,0,0,1,1820,149.18ZM1778,123.4a21.9,21.9,0,0,0-8.19-15.3q-7.23-5.89-17.83-5.9a23.38,23.38,0,0,0-15.9,5.9,25.69,25.69,0,0,0-8.43,15.3Z"/><path class="cls-2" d="M1982.34,68.47V202.91h-41.2V183.15a42.71,42.71,0,0,1-16.5,15.54q-10.48,5.67-24.22,5.66-15.17,0-26.86-6.86a47.35,47.35,0,0,1-18.31-19.88q-6.63-13-6.62-30.6V68.47h40.95v73q0,13,6.87,20.12t18.91,7.11q12,0,18.91-7.11t6.87-20.12v-73Z"/><path class="cls-2" d="M2232.65,82.21q14.46,15.17,14.46,42.16v78.54h-41v-73q0-13-6.87-20.12t-18.91-7.11q-12,0-18.91,7.11t-6.87,20.12v73h-41v-73q0-13-6.87-20.12t-18.91-7.11q-12.06,0-18.91,7.11t-6.87,20.12v73h-41.2V68.47h41.2V88.23a42.79,42.79,0,0,1,16.5-15.54Q2089.07,67,2102.8,67a52.38,52.38,0,0,1,26.62,6.74,46.42,46.42,0,0,1,18.19,19.28A57.3,57.3,0,0,1,2167,74.14,51,51,0,0,1,2193.62,67Q2218.19,67,2232.65,82.21Z"/></g></g></svg>