<svg width="898" height="596" viewBox="0 0 898 596" fill="none" xmlns="http://www.w3.org/2000/svg">
<path d="M454.673 167.512C446.67 154.276 437.187 140.143 422.336 135.821C405.138 130.816 387.471 140.759 372.485 150.571C327.669 179.914 284.511 211.715 243.207 245.826L243.252 246.339C275.409 244.122 307.565 241.904 339.721 239.686C362.954 238.084 386.986 236.261 407.517 225.27C415.308 221.099 422.903 215.528 431.731 215.139C442.7 214.657 452.264 222.318 459.78 230.322C504.239 277.667 517.104 350.069 566.983 391.666C535.531 314.096 497.976 239.143 454.673 167.512Z" fill="#0C160F"/>
<path d="M727.956 569.085C723.039 562.877 721.03 561.423 716.181 555.157C676.693 504.083 639.578 451.284 604.835 396.759C581.237 359.729 558.808 321.987 537.55 283.534C527.429 265.253 517.586 246.828 508.021 228.26C500.598 213.863 493.341 199.38 486.249 184.811C484.221 180.649 482.251 176.469 480.29 172.279C475.669 162.426 471.135 152.525 466.266 142.805C460.718 131.728 453.965 120.114 443.777 112.672C439.141 109.146 433.597 107.012 427.793 106.521C419.499 105.985 411.847 109.41 404.653 113.15C352.023 140.596 302.75 175.005 258.183 214.16C213.502 253.402 173.565 297.737 139.185 346.259C138.133 347.761 135.646 346.326 136.708 344.815C140.888 338.903 145.151 333.055 149.497 327.271C203.537 255.396 269.797 193.587 345.25 144.671C357.944 136.444 370.877 128.603 384.049 121.147C390.687 117.388 397.355 113.676 404.137 110.194C410.785 106.779 417.844 103.708 425.44 103.593C451.286 103.192 464.669 132.464 473.861 152.161C476.75 158.36 479.674 164.54 482.633 170.7C493.815 194.09 505.428 217.265 517.471 240.228C524.904 254.405 532.499 268.499 540.257 282.51C564.401 326.142 590.063 368.89 617.242 410.755C653.248 466.21 688.966 515.199 729.984 567.057C731.113 568.492 729.094 570.539 727.956 569.085Z" fill="#E4E4E4"/>
<path d="M255.629 199.705C254.127 198.031 252.635 196.357 251.123 194.683C239.204 181.501 226.415 168.472 210.048 160.914C202.244 157.197 193.725 155.222 185.081 155.127C176.147 155.156 167.414 157.499 159.159 160.781C155.256 162.34 151.439 164.11 147.68 165.994C143.385 168.156 139.166 170.462 134.967 172.786C127.085 177.148 119.305 181.702 111.627 186.447C96.35 195.888 81.5518 206.051 67.232 216.934C59.8087 222.578 52.5387 228.407 45.4219 234.421C38.8024 240.008 32.3169 245.744 25.9653 251.631C24.607 252.884 22.579 250.856 23.9372 249.603C25.6113 248.043 27.3044 246.494 28.9976 244.963C33.7804 240.639 38.6399 236.398 43.576 232.24C52.577 224.645 61.8111 217.342 71.2783 210.333C86.0001 199.428 101.229 189.262 116.964 179.836C124.827 175.13 132.799 170.621 140.878 166.31C143.318 165.009 145.786 163.737 148.282 162.531C153.947 159.674 159.833 157.277 165.883 155.366C174.453 152.594 183.521 151.703 192.466 152.754C201.104 154.011 209.426 156.89 216.993 161.24C233.063 170.222 245.527 184.112 257.657 197.668C258.881 199.045 256.863 201.083 255.629 199.705Z" fill="#E4E4E4"/>
<path d="M584.904 336.308L623.412 322.223L642.532 315.23C648.759 312.952 654.971 310.359 661.408 308.728C667.002 307.13 672.941 307.206 678.493 308.946C683.444 310.778 687.976 313.588 691.819 317.207C695.745 320.823 699.399 324.725 702.749 328.88C706.912 333.883 711.013 338.938 715.133 343.977C732.135 364.771 749.026 385.656 765.806 406.631C782.586 427.605 799.253 448.669 815.809 469.822C832.404 491.026 848.886 512.319 865.253 533.701C867.258 536.32 869.262 538.941 871.263 541.563C872.369 543.011 874.863 541.583 873.741 540.114C857.253 518.518 840.65 497.009 823.932 475.589C807.173 454.118 790.298 432.738 773.307 411.449C756.316 390.16 739.211 368.964 721.991 347.86C717.701 342.602 713.404 337.35 709.1 332.104C705.469 327.679 701.879 323.206 697.897 319.087C690.587 311.527 681.454 304.845 670.522 304.664C664.095 304.558 657.874 306.597 651.903 308.758C645.465 311.087 639.042 313.459 632.613 315.811L593.835 329.995L584.141 333.541C582.42 334.17 583.163 336.945 584.904 336.308Z" fill="#E4E4E4"/>
<path d="M204.981 177.502C185.411 167.444 160.35 169.414 142.368 181.98C176.668 187.898 210.594 195.816 243.97 205.694C230.11 197.572 219.268 184.845 204.981 177.502Z" fill="#0C160F"/>
<path d="M142.175 181.945L138.408 185.007C139.682 183.935 141.007 182.93 142.368 181.979C142.303 181.968 142.239 181.956 142.175 181.945Z" fill="#0C160F"/>
<path d="M690.369 336.449C686.578 331.835 682.48 327.003 676.81 325.129L671.516 325.337C711.812 396.546 766.235 458.767 831.444 508.182C784.419 450.938 737.394 393.693 690.369 336.449Z" fill="#0C160F"/>
<path d="M361.193 298.382C363.643 307.283 369.162 315.03 376.773 320.253C379.716 322.257 383.198 324.179 384.204 327.594C384.734 329.771 384.408 332.068 383.293 334.011C382.18 335.93 380.826 337.698 379.264 339.272L379.121 339.806C371.819 335.478 364.871 330.004 360.837 322.535C356.803 315.066 356.24 305.276 361.193 298.382Z" fill="#0C160F"/>
<path d="M604.319 510.215C606.769 519.116 612.288 526.863 619.9 532.086C622.842 534.09 626.324 536.012 627.331 539.427C627.86 541.604 627.534 543.901 626.419 545.844C625.306 547.763 623.952 549.531 622.39 551.105L622.247 551.639C614.945 547.311 607.997 541.837 603.964 534.368C599.93 526.899 599.366 517.109 604.319 510.215Z" fill="#0C160F"/>
<path d="M119.11 495.606C121.56 504.507 127.079 512.254 134.691 517.477C137.633 519.481 141.115 521.403 142.122 524.818C142.651 526.995 142.325 529.292 141.21 531.235C140.097 533.154 138.743 534.922 137.181 536.496L137.038 537.03C129.736 532.703 122.788 527.228 118.755 519.759C114.721 512.29 114.158 502.5 119.11 495.606Z" fill="#0C160F"/>
<path d="M677.465 106.438C706.856 106.438 730.682 82.6113 730.682 53.2191C730.682 23.827 706.856 0 677.465 0C648.075 0 624.249 23.827 624.249 53.2191C624.249 82.6113 648.075 106.438 677.465 106.438Z" fill="#4DEE54"/>
<path d="M773.5 12.3869C747.709 8.90058 718.265 22.8415 711.58 47.9952C709.896 43.5229 706.833 39.7019 702.835 37.0843C698.836 34.4667 694.109 33.1879 689.337 33.4329C684.564 33.6778 679.993 35.4336 676.284 38.4468C672.574 41.46 669.919 45.5744 668.701 50.1957L671.653 52.3105C726.923 64.2632 784.135 64.0045 839.294 51.5526C821.354 32.6974 799.291 15.8731 773.5 12.3869Z" fill="#F0F0F0"/>
<path d="M662.894 83.3456C637.103 79.8593 607.658 93.8003 600.973 118.954C599.289 114.482 596.226 110.661 592.228 108.043C588.23 105.425 583.503 104.147 578.73 104.392C573.957 104.637 569.386 106.392 565.677 109.406C561.967 112.419 559.312 116.533 558.094 121.154L561.047 123.269C616.316 135.222 673.529 134.963 728.688 122.511C710.748 103.656 688.685 86.8319 662.894 83.3456Z" fill="#F0F0F0"/>
<path d="M887.996 96.7632C887.889 96.7634 887.783 96.7469 887.681 96.7142C611.783 9.45766 368.618 20.868 213.21 45.8053C192.06 49.1978 170.854 53.116 150.181 57.4521C144.903 58.5578 139.427 59.7429 133.906 60.977C127.313 62.4455 120.807 63.9577 114.569 65.47C111.874 66.108 109.233 66.751 106.644 67.3991C102.722 68.3672 98.7429 69.376 94.4774 70.4847C89.711 71.7137 84.8681 73.0028 80.0803 74.3164C80.0628 74.3226 80.045 74.3277 80.0268 74.3317L80.0274 74.3327C74.6195 75.8093 69.2402 77.3288 64.0382 78.8461C61.2226 79.6593 58.5039 80.4613 55.8999 81.2531C55.609 81.3337 55.3512 81.4111 55.0898 81.4906L54.5303 81.6608C54.2063 81.7596 53.8863 81.8564 53.5664 81.9481L53.546 81.9542L53.5465 81.9553L52.6997 82.2183C51.6899 82.524 50.7045 82.8226 49.7354 83.1201C24.1238 91.0158 10.0442 96.6328 9.90509 96.6878C9.7779 96.7388 9.64192 96.7642 9.5049 96.7627C9.36787 96.7611 9.2325 96.7325 9.10651 96.6786C8.98052 96.6248 8.86637 96.5466 8.77059 96.4486C8.67481 96.3506 8.59927 96.2347 8.54829 96.1075C8.49731 95.9803 8.47189 95.8443 8.47346 95.7072C8.47503 95.5702 8.50357 95.4348 8.55746 95.3088C8.61135 95.1828 8.68952 95.0687 8.78752 94.9729C8.88552 94.8771 9.00142 94.8016 9.12861 94.7506C9.26873 94.6956 23.4171 89.05 49.122 81.1248C50.0946 80.8262 51.0826 80.5276 52.0954 80.2209L52.8821 79.9763C52.9091 79.9661 52.9361 79.958 52.9636 79.9498C53.2821 79.8591 53.6 79.7623 53.923 79.6645L54.4835 79.4943C54.7627 79.4097 55.0378 79.3262 55.3196 79.2487C57.9058 78.462 60.6337 77.658 63.4563 76.8417C68.6604 75.3233 74.0448 73.8039 79.4567 72.3253C79.4735 72.3192 79.4909 72.3151 79.5077 72.31C84.3123 70.9923 89.1729 69.6971 93.9546 68.4641C98.2268 67.3543 102.214 66.3434 106.142 65.3733C108.742 64.7262 111.389 64.0818 114.082 63.4401C120.327 61.9258 126.847 60.4115 133.452 58.94C138.981 57.7049 144.466 56.5166 149.753 55.41C170.458 51.0667 191.697 47.1424 212.879 43.7448C368.51 18.7718 612.024 7.34309 888.31 94.725C888.548 94.8 888.751 94.9576 888.882 95.1692C889.014 95.3808 889.065 95.6324 889.027 95.8787C888.989 96.1249 888.864 96.3495 888.675 96.5117C888.486 96.6739 888.245 96.7631 887.996 96.7632Z" fill="#CCCCCC"/>
<path d="M274.418 438.108C274.057 437.052 273.449 436.097 272.644 435.322C272.347 435.047 272.026 434.799 271.684 434.581C268.961 432.766 264.891 432.359 262.304 434.581C262.043 434.807 261.802 435.055 261.584 435.322C260.812 436.272 260.019 437.2 259.205 438.108C257.869 439.632 256.502 441.103 255.073 442.533C254.666 442.929 254.259 443.336 253.841 443.733C253.601 443.973 253.361 444.202 253.121 444.432C252.203 445.309 251.264 446.154 250.314 446.989C249.814 447.437 249.313 447.876 248.801 448.303C248.04 448.94 247.278 449.577 246.506 450.192C246.433 450.244 246.36 450.297 246.287 450.359C246.266 450.37 246.255 450.391 246.234 450.401C246.224 450.401 246.214 450.401 246.203 450.422C246.175 450.433 246.15 450.451 246.13 450.474C245.901 450.631 245.744 450.735 245.629 450.829C245.671 450.808 245.713 450.777 245.754 450.756C245.567 450.902 245.368 451.048 245.181 451.194C243.354 452.54 241.487 453.834 239.577 455.045C234.853 458.068 229.89 460.703 224.739 462.923C224.395 463.059 224.04 463.205 223.685 463.34C210.198 468.866 195.568 471.023 181.06 469.622C179.578 469.508 178.096 469.351 176.615 469.153C174.903 468.902 173.203 468.6 171.512 468.255C165.077 466.971 158.78 465.07 152.709 462.579C145.115 459.101 137.892 454.864 131.151 449.931C130.108 449.19 129.054 448.45 128 447.73C129.2 444.787 130.379 441.844 131.527 438.881C132.101 437.451 132.654 436.021 133.196 434.581C137.464 423.489 141.471 412.292 145.311 401.053C149.193 389.668 152.855 378.218 156.299 366.701C156.653 365.532 156.998 364.363 157.332 363.195C159.137 357.111 160.869 351.013 162.528 344.902C162.685 344.307 162.852 343.723 162.998 343.128C163.478 341.375 163.947 339.622 164.406 337.869C165.45 333.914 163.092 329.187 158.939 328.237C156.939 327.724 154.819 328.008 153.024 329.028C151.229 330.048 149.901 331.725 149.318 333.705C148.869 335.395 148.42 337.075 147.961 338.766C145.76 346.937 143.443 355.08 141.012 363.195C140.657 364.363 140.302 365.532 139.948 366.701C134.584 384.378 128.696 401.878 122.282 419.2C121.51 421.297 120.727 423.388 119.934 425.471C119.548 426.494 119.162 427.517 118.765 428.539C118.004 430.553 117.221 432.567 116.438 434.581C115.99 435.76 115.531 436.94 115.072 438.108C114.769 438.849 114.477 439.59 114.185 440.321C111.209 439.252 108.127 438.511 104.992 438.108L104.491 438.046C102.06 437.753 99.6016 437.774 97.1761 438.108C93.546 438.532 90.0532 439.748 86.9447 441.67C83.8362 443.592 81.1879 446.174 79.1869 449.232C74.2096 457.069 74.2722 468.276 81.2529 474.934C88.4424 481.79 99.3257 481.738 107.788 477.449C112.273 475.022 116.054 471.478 118.765 467.16C119.804 465.594 120.758 463.975 121.624 462.307C121.844 462.453 122.063 462.6 122.282 462.756C123.117 463.34 123.951 463.935 124.776 464.52C129.579 467.999 134.64 471.108 139.916 473.817C151.261 479.457 163.472 483.151 176.041 484.743C176.323 484.774 176.594 484.816 176.876 484.847C178.263 485.025 179.662 485.16 181.06 485.275C201.117 486.787 221.2 482.682 239.055 473.421C240.568 472.638 242.068 471.817 243.553 470.958C245.859 469.622 248.113 468.203 250.314 466.701C251.514 465.887 252.683 465.062 253.841 464.196C258.903 460.468 263.62 456.295 267.938 451.726C269.577 450.004 271.145 448.227 272.644 446.394C274.062 444.894 274.879 442.926 274.94 440.863C274.932 439.921 274.755 438.988 274.418 438.108ZM101.632 462.965C101.851 462.808 102.07 462.641 102.279 462.474C102.216 462.631 101.913 462.808 101.632 462.965ZM104.981 459.594C104.741 459.866 104.522 460.137 104.282 460.408C103.552 461.225 102.768 461.992 101.934 462.704C101.82 462.808 101.694 462.913 101.569 463.007C101.568 463.006 101.566 463.007 101.565 463.007C101.564 463.008 101.563 463.009 101.562 463.01C101.561 463.01 101.56 463.012 101.559 463.013C101.559 463.014 101.559 463.016 101.559 463.017C101.408 463.084 101.262 463.161 101.12 463.247C100.672 463.518 100.213 463.768 99.7431 463.998C98.8237 464.336 97.8779 464.598 96.9153 464.781C96.1756 464.834 95.4333 464.841 94.6927 464.801H94.6718C94.1608 464.688 93.6558 464.549 93.1588 464.384C92.9084 464.259 92.6684 464.113 92.4284 463.967C92.3345 463.883 92.251 463.8 92.1988 463.747C92.0969 463.654 92.0027 463.553 91.9172 463.445C91.9172 463.443 91.9169 463.442 91.9164 463.441C91.9159 463.439 91.9152 463.438 91.9142 463.437C91.9132 463.436 91.912 463.436 91.9107 463.435C91.9095 463.435 91.9081 463.434 91.9067 463.434C91.7919 463.226 91.6667 463.017 91.552 462.808C91.546 462.803 91.5423 462.795 91.5415 462.787C91.458 462.527 91.385 462.255 91.3224 461.984C91.2998 461.508 91.3032 461.03 91.3328 460.554C91.4728 459.888 91.6612 459.232 91.8963 458.592C92.1076 458.139 92.3481 457.7 92.6163 457.278C92.6372 457.236 92.7415 457.069 92.8563 456.881C92.8667 456.871 92.8667 456.871 92.8667 456.86C93.0232 456.683 93.1798 456.495 93.3467 456.328C93.6285 456.015 93.9311 455.744 94.2337 455.462C94.8222 455.077 95.4318 454.725 96.0597 454.408C97.0558 454.054 98.0781 453.779 99.1171 453.584C100.649 453.462 102.189 453.476 103.719 453.625C105.168 453.877 106.597 454.229 107.997 454.679C107.148 456.326 106.183 457.909 105.107 459.417C105.065 459.479 105.023 459.542 104.981 459.594ZM93.378 456.161C93.286 456.309 93.1775 456.445 93.0545 456.568C93.1373 456.414 93.2468 456.276 93.378 456.161Z" fill="#4DEE54"/>
<path d="M243.052 331.534C242.958 334.811 242.864 338.088 242.77 341.364C242.572 348.638 242.367 355.914 242.155 363.195C241.935 371.386 241.706 379.574 241.466 387.759C241.351 391.985 241.233 396.211 241.111 400.438C240.788 411.822 240.468 423.203 240.151 434.581C240.12 435.76 240.078 436.929 240.047 438.108C239.89 443.754 239.734 449.399 239.577 455.044C239.4 461.17 239.226 467.295 239.055 473.421C238.93 478.012 238.802 482.607 238.669 487.206C237.73 520.525 236.791 553.844 235.852 587.164C235.812 589.227 234.975 591.195 233.516 592.654C232.057 594.113 230.089 594.95 228.026 594.99C225.956 594.973 223.975 594.143 222.511 592.679C221.047 591.215 220.217 589.234 220.2 587.164C220.722 568.422 221.251 549.681 221.786 530.939C222.256 513.993 222.732 497.046 223.216 480.099C223.372 474.516 223.529 468.93 223.685 463.34C223.925 454.93 224.162 446.519 224.395 438.108C224.426 436.929 224.468 435.76 224.499 434.581C224.52 433.548 224.551 432.526 224.583 431.492C225.042 415.161 225.501 398.827 225.96 382.489C226.148 376.061 226.329 369.63 226.503 363.195C226.711 355.859 226.92 348.526 227.129 341.197C227.223 337.973 227.306 334.759 227.4 331.534C227.44 329.471 228.277 327.503 229.736 326.044C231.195 324.585 233.163 323.748 235.226 323.708C237.296 323.725 239.277 324.555 240.741 326.019C242.205 327.483 243.035 329.464 243.052 331.534Z" fill="#4DEE54"/>
<path d="M672.361 333.706C664.154 364.782 654.346 395.412 642.976 425.474C639.838 433.766 636.628 442.042 633.197 450.218L633.986 448.348C632.454 452.242 630.498 455.956 628.153 459.422C627.994 459.645 627.831 459.866 627.666 460.086C628.477 459.049 628.631 458.844 628.128 459.471C627.863 459.785 627.601 460.099 627.327 460.405C626.597 461.223 625.813 461.991 624.981 462.705C624.771 462.884 624.558 463.059 624.342 463.231L625.321 462.47C625.207 462.738 624.41 463.094 624.162 463.245C623.358 463.73 622.519 464.155 621.652 464.517L623.522 463.728C622.102 464.3 620.62 464.706 619.107 464.939L621.187 464.659C619.7 464.865 618.194 464.881 616.703 464.707L618.783 464.987C617.563 464.819 616.369 464.498 615.23 464.03L617.1 464.819C616.492 464.554 615.906 464.242 615.348 463.884C615.065 463.699 614.195 463.04 615.332 463.91C616.515 464.813 615.484 463.987 615.241 463.747C615.038 463.547 614.855 463.33 614.657 463.126C613.736 462.182 615.697 464.75 615.071 463.646C614.737 463.093 614.431 462.523 614.155 461.938L614.943 463.808C614.584 462.918 614.33 461.99 614.184 461.041L614.463 463.122C614.314 461.942 614.313 460.749 614.46 459.569L614.181 461.649C614.372 460.332 614.72 459.043 615.219 457.809L614.43 459.679C614.777 458.849 615.188 458.047 615.659 457.28C615.876 456.884 616.13 456.509 616.419 456.162C616.47 456.179 615.095 457.741 615.825 456.952C616.016 456.746 616.194 456.528 616.387 456.324C616.696 455.996 617.028 455.697 617.353 455.387C618.443 454.349 615.828 456.395 617.085 455.574C617.997 454.974 618.957 454.451 619.954 454.009L618.085 454.798C619.756 454.112 621.507 453.642 623.297 453.4L621.217 453.68C623.458 453.422 625.723 453.449 627.958 453.759L625.878 453.48C628.708 453.909 631.474 454.687 634.112 455.796L632.243 455.007C637.867 457.422 642.848 461.007 647.82 464.522C652.622 468 657.682 471.107 662.956 473.816C674.301 479.457 686.514 483.152 699.083 484.746C717.11 486.954 735.402 484.6 752.282 477.899C769.161 471.198 784.088 460.365 795.693 446.395C797.108 444.893 797.924 442.924 797.985 440.86C797.97 438.788 797.148 436.803 795.693 435.326C792.821 432.691 787.398 431.946 784.625 435.326C781.997 438.535 779.172 441.576 776.166 444.433C774.763 445.765 773.322 447.055 771.844 448.304C770.999 449.018 770.144 449.718 769.276 450.403C768.865 450.727 767.587 451.591 769.55 450.197C769.1 450.517 768.669 450.865 768.225 451.193C761.653 456.038 754.532 460.089 747.009 463.261L748.878 462.472C740.806 465.859 732.328 468.182 723.657 469.383L725.737 469.104C716.817 470.277 707.781 470.263 698.864 469.064L700.945 469.343C692.03 468.119 683.312 465.744 675.007 462.278L676.877 463.067C668.863 459.522 661.258 455.116 654.196 449.928C650.52 447.207 646.644 444.767 642.6 442.63C637.889 440.224 632.788 438.673 627.534 438.05C617.685 436.891 607.649 440.728 602.234 449.237C597.251 457.069 597.316 468.275 604.294 474.934C611.481 481.792 622.365 481.734 630.835 477.444C638.992 473.313 643.892 464.729 647.337 456.635C655.091 438.42 661.956 419.785 668.352 401.054C674.68 382.523 680.419 363.805 685.568 344.899C686.206 342.558 686.834 340.214 687.453 337.867C688.498 333.914 686.138 329.185 681.987 328.24C679.987 327.725 677.865 328.007 676.069 329.027C674.273 330.047 672.943 331.725 672.361 333.706Z" fill="#4DEE54"/>
<path d="M750.445 331.534L747.628 431.495L744.826 530.936L743.242 587.164C743.259 589.234 744.09 591.215 745.553 592.679C747.017 594.143 748.998 594.973 751.068 594.99C753.131 594.951 755.098 594.113 756.557 592.654C758.016 591.195 758.854 589.227 758.894 587.164L761.711 487.203L764.513 387.762L766.097 331.534C766.08 329.464 765.249 327.483 763.786 326.019C762.322 324.555 760.341 323.725 758.271 323.708C756.208 323.747 754.241 324.585 752.782 326.044C751.322 327.503 750.485 329.471 750.445 331.534Z" fill="#4DEE54"/>
<path opacity="0.2" d="M479.565 559.255H481.995V448.599H538.685V446.175H481.995V399.484H525.775C525.133 398.667 524.472 397.862 523.793 397.066H481.995V366.227C481.192 365.884 480.382 365.554 479.565 365.243V397.066H431.929V357.553C431.113 357.591 430.309 357.647 429.499 357.715V397.066H391.496V367.586C390.68 367.947 389.876 368.327 389.079 368.726V397.066H357.132V399.484H389.079V446.175H357.132V448.599H389.079V559.255H391.496V448.599C396.487 448.598 401.429 449.58 406.041 451.49C410.652 453.4 414.842 456.199 418.371 459.728C421.9 463.257 424.699 467.448 426.608 472.059C428.518 476.67 429.5 481.613 429.499 486.604V559.255H431.929V448.599H479.565V559.255ZM391.496 446.175V399.484H429.499V446.175H391.496ZM431.929 446.175V399.484H432.883C439.014 399.484 445.084 400.692 450.748 403.039C456.412 405.386 461.559 408.825 465.894 413.161C470.229 417.496 473.667 422.643 476.013 428.308C478.359 433.973 479.566 440.044 479.565 446.175H431.929Z" fill="black"/>
<path d="M464.725 526.076C461.665 539.724 454.337 552.042 443.803 561.243C443.031 561.91 442.259 562.557 441.455 563.194C439.504 563.371 437.567 563.552 435.643 563.737C434.047 563.883 432.471 564.039 430.906 564.185L430.624 564.217L430.426 562.505L429.633 555.576C426.557 550.554 424.65 544.903 424.054 539.043C423.458 533.183 424.188 527.264 426.19 521.725C428.944 514.295 433.932 507.731 438.836 501.22C445.608 492.225 452.193 483.334 452.433 472.367C455.765 476.631 458.535 481.306 460.676 486.277C458.656 487.228 456.841 488.564 455.333 490.211C454.906 490.68 454.478 491.338 454.77 491.901C455.02 492.381 455.646 492.496 456.189 492.559C457.493 492.694 458.808 492.83 460.112 492.966C461.156 493.08 462.199 493.185 463.243 493.299C464.505 497.443 465.361 501.7 465.799 506.009C466.502 512.713 466.14 519.486 464.725 526.076Z" fill="#4DEE54"/>
<path d="M499.367 498.726C493.211 503.203 489.611 509.641 486.815 516.737C483.948 517.654 481.37 519.301 479.333 521.516C478.905 521.986 478.477 522.643 478.77 523.207C479.02 523.687 479.646 523.802 480.189 523.864C481.493 524 482.808 524.135 484.112 524.271C481.316 532.661 478.749 541.343 473.803 548.428C470.513 553.106 466.226 556.995 461.25 559.813C459.893 560.586 458.493 561.28 457.055 561.89C451.754 562.297 446.554 562.731 441.455 563.194C439.504 563.371 437.567 563.552 435.643 563.737C434.047 563.883 432.471 564.039 430.906 564.185C430.896 563.611 430.896 563.038 430.906 562.464C431.236 547.175 436.86 532.474 446.819 520.869C447.288 520.327 447.768 519.794 448.259 519.262C453.304 513.873 459.237 509.39 465.799 506.01C476.14 500.633 487.729 498.118 499.367 498.726Z" fill="#4DEE54"/>
<path d="M437.448 558.384L436.248 561.932L435.643 563.737C434.047 563.883 432.471 564.04 430.906 564.186L430.624 564.217C428.892 564.394 427.17 564.572 425.449 564.749C425 564.227 424.551 563.695 424.113 563.153C413.222 549.963 407.993 532.998 409.571 515.965C411.149 498.932 419.405 483.217 432.534 472.252C431.156 479.463 432.763 486.371 435.403 493.227C435.122 493.342 434.85 493.456 434.589 493.582C432.569 494.533 430.755 495.869 429.247 497.516C428.819 497.985 428.391 498.643 428.683 499.206C428.934 499.686 429.56 499.801 430.103 499.863C431.407 499.999 432.722 500.135 434.026 500.27C435.069 500.385 436.113 500.49 437.156 500.604C437.647 500.657 438.137 500.709 438.628 500.761C438.701 500.917 438.763 501.064 438.836 501.22C441.81 507.669 445.014 514.149 446.819 520.869C447.271 522.555 447.627 524.266 447.883 525.993C448.687 531.829 448.166 537.771 446.359 543.378C444.553 548.986 441.507 554.114 437.448 558.384Z" fill="#4DEE54"/>
<path d="M542.481 407.033C533.499 389.51 519.582 374.767 503.214 363.932C486.793 353.113 467.951 346.524 448.367 344.753C445.8 344.519 443.226 344.383 440.646 344.343C437.598 344.297 391.743 357.524 376.382 368.325C361.03 378.994 348.401 393.123 339.514 409.572C330.642 426.111 326.279 444.693 326.861 463.452C327.622 482.324 332.882 500.741 342.203 517.167C351.397 533.541 364.451 547.421 380.231 557.599C396.236 567.812 412.312 594.89 431.209 595.846C450.247 596.809 471.96 571.266 489.324 563.51C506.689 555.69 521.7 543.455 532.863 528.026C543.711 512.904 550.728 495.377 553.314 476.948C556 458.078 554.748 438.617 548.304 420.581C546.651 415.947 544.706 411.422 542.481 407.033C540.624 403.375 535.181 402.028 531.774 404.225C530.019 405.306 528.747 407.022 528.224 409.017C527.702 411.011 527.967 413.13 528.966 414.933C530.057 417.081 531.071 419.265 532.009 421.484L531.22 419.614C534.767 428.145 537.18 437.105 538.395 446.264L538.115 444.183C539.408 454.12 539.385 464.183 538.046 474.114L538.326 472.033C536.973 481.963 534.323 491.672 530.443 500.912L531.232 499.042C529.236 503.756 526.91 508.324 524.27 512.71C522.933 514.927 521.513 517.091 520.012 519.203C519.353 520.129 518.674 521.04 517.989 521.948C517.096 523.133 519.207 520.401 518.284 521.563C518.127 521.761 517.97 521.959 517.812 522.157C517.338 522.749 516.858 523.336 516.37 523.918C513.117 527.8 509.567 531.422 505.752 534.753C504.801 535.583 503.835 536.394 502.853 537.186C502.364 537.581 501.881 537.992 501.371 538.36C501.39 538.346 503.019 537.108 502.055 537.826C501.751 538.052 501.451 538.282 501.147 538.507C499.123 540.006 497.045 541.43 494.913 542.777C490.005 545.869 484.856 548.56 479.516 550.825L481.386 550.036C472.174 553.915 462.492 556.564 452.59 557.917L454.67 557.637C444.772 558.975 434.741 558.992 424.839 557.69L426.919 557.969C417.919 556.761 409.116 554.381 400.733 550.89L402.603 551.679C397.747 549.628 393.066 547.189 388.604 544.384C386.395 542.992 384.245 541.515 382.151 539.951C381.853 539.728 381.556 539.502 381.259 539.278C380.304 538.557 381.945 539.81 381.958 539.818C381.403 539.42 380.868 538.993 380.357 538.54C379.346 537.717 378.35 536.874 377.371 536.013C373.452 532.561 369.792 528.826 366.422 524.837C365.578 523.84 364.752 522.828 363.944 521.8C363.595 521.355 362.957 520.454 364.366 522.352C364.181 522.102 363.988 521.857 363.801 521.609C363.351 521.012 362.908 520.411 362.47 519.806C360.938 517.685 359.481 515.513 358.1 513.288C354.98 508.253 352.257 502.981 349.955 497.523L350.744 499.392C346.979 490.432 344.404 481.017 343.085 471.387L343.365 473.468C342.175 464.592 342.158 455.597 343.314 446.717L343.035 448.797C344.22 440.197 346.533 431.791 349.916 423.795L349.127 425.665C351.255 420.66 353.765 415.826 356.635 411.206C358.071 408.894 359.594 406.638 361.203 404.439C361.568 403.939 361.937 403.443 362.311 402.949C362.649 402.502 363.579 401.391 361.993 403.354C362.148 403.162 362.298 402.964 362.451 402.77C363.334 401.651 364.238 400.55 365.164 399.467C368.667 395.365 372.463 391.522 376.52 387.967C377.545 387.068 378.587 386.188 379.645 385.327C380.125 384.936 380.609 384.549 381.096 384.166C381.291 384.013 381.488 383.863 381.682 383.708C379.598 385.367 381.103 384.16 381.576 383.805C383.756 382.172 385.995 380.62 388.291 379.15C393.396 375.885 398.767 373.055 404.346 370.689L402.477 371.478C410.574 368.078 446.449 360.053 452.974 360.929L450.894 360.649C460.484 361.988 469.857 364.578 478.775 368.353L476.905 367.564C481.424 369.483 485.816 371.689 490.053 374.168C492.17 375.409 494.246 376.718 496.28 378.094C497.242 378.746 498.195 379.412 499.137 380.093C499.608 380.433 500.076 380.777 500.542 381.125C500.8 381.318 501.057 381.513 501.315 381.707C502.4 382.52 499.822 380.53 500.958 381.429C504.763 384.418 508.376 387.643 511.777 391.085C513.447 392.786 515.06 394.54 516.615 396.349C517.413 397.277 518.194 398.219 518.959 399.175C519.339 399.649 520.634 401.367 519.047 399.263C519.435 399.777 519.827 400.288 520.21 400.806C523.507 405.27 526.436 409.994 528.966 414.933C530.838 418.583 536.257 419.944 539.674 417.741C541.43 416.661 542.702 414.944 543.225 412.95C543.748 410.956 543.481 408.836 542.481 407.033Z" fill="#4DEE54"/>
<path d="M451.293 534.754C450.485 534.791 449.686 534.579 449.002 534.146C448.319 533.714 447.785 533.081 447.473 532.335C447.161 531.589 447.086 530.765 447.258 529.975C447.43 529.185 447.841 528.466 448.435 527.917C448.534 527.522 448.606 527.238 448.705 526.843C448.669 526.757 448.634 526.671 448.598 526.585C444.967 517.926 421.796 542.064 420.795 550.202C420.354 553.799 420.54 557.445 421.345 560.978C413.839 544.606 409.942 526.811 409.917 508.8C409.916 504.28 410.167 499.764 410.669 495.273C411.085 491.59 411.661 487.934 412.398 484.305C416.421 464.61 425.057 446.151 437.599 430.442C444.772 430.843 451.058 429.75 451.665 415.848C451.773 413.376 453.607 411.234 454.011 408.798C453.326 408.888 452.63 408.944 451.945 408.989C451.732 409 451.508 409.012 451.294 409.023L451.214 409.027C450.461 409.06 449.715 408.876 449.065 408.495C448.415 408.115 447.888 407.554 447.549 406.882C447.21 406.209 447.073 405.453 447.154 404.704C447.234 403.955 447.53 403.245 448.004 402.66C448.3 402.296 448.596 401.932 448.892 401.569C449.341 401.008 449.801 400.457 450.25 399.896C450.302 399.843 450.351 399.787 450.396 399.728C450.913 399.088 451.429 398.459 451.945 397.819C451.003 396.356 449.735 395.131 448.241 394.238C443.066 391.207 435.927 393.306 432.188 397.988C428.439 402.669 427.732 409.236 429.034 415.085C430.315 420.062 432.433 424.784 435.298 429.05C435.017 429.409 434.725 429.757 434.445 430.117C429.315 436.714 424.843 443.797 421.095 451.267C422.156 442.983 409.188 413.066 404.173 406.729C398.149 399.118 385.796 402.439 384.735 412.088C384.725 412.182 384.715 412.275 384.705 412.368C385.45 412.789 386.179 413.235 386.892 413.706C387.789 414.305 388.483 415.161 388.885 416.161C389.286 417.162 389.377 418.26 389.143 419.312C388.91 420.365 388.365 421.322 387.578 422.059C386.791 422.796 385.801 423.279 384.735 423.443L384.626 423.46C374.655 437.697 406.62 474.753 414.621 466.433C410.855 477.106 408.493 488.223 407.594 499.505C407.085 506.161 407.115 512.847 407.683 519.498L407.65 519.263C405.872 504.776 375.374 483.238 366.468 485.032C361.338 486.065 356.284 485.83 357.063 491.006C357.076 491.088 357.089 491.171 357.101 491.254C358.484 491.817 359.83 492.465 361.131 493.196C361.876 493.616 362.605 494.062 363.319 494.534C364.215 495.133 364.909 495.988 365.311 496.989C365.713 497.989 365.803 499.087 365.57 500.14C365.337 501.192 364.791 502.15 364.005 502.887C363.218 503.624 362.227 504.106 361.162 504.27L361.053 504.287C360.974 504.298 360.907 504.31 360.828 504.321C356.289 519.938 389.948 545.143 410.411 537.123H410.422C412.45 545.936 415.388 554.514 419.189 562.719H450.508C450.621 562.371 450.722 562.011 450.823 561.663C447.924 561.845 445.013 561.672 442.157 561.147C444.48 558.295 446.804 555.422 449.128 552.57C449.179 552.517 449.228 552.461 449.274 552.402C450.452 550.942 451.642 549.494 452.821 548.035L452.821 548.033C452.884 543.56 452.371 539.097 451.294 534.755L451.293 534.754ZM415.429 464.199L415.445 464.177L415.429 464.221V464.199ZM408.492 526.739L408.222 526.133C408.233 525.695 408.233 525.257 408.222 524.808C408.222 524.685 408.2 524.561 408.2 524.438C408.301 525.212 408.39 525.987 408.503 526.762L408.492 526.739Z" fill="#4DEE54"/>
<path d="M99.3885 469.581C105.728 469.581 110.867 464.441 110.867 458.102C110.867 451.762 105.728 446.623 99.3885 446.623C93.0493 446.623 87.9104 451.762 87.9104 458.102C87.9104 464.441 93.0493 469.581 99.3885 469.581Z" fill="#4DEE54"/>
<path d="M237.125 594.802C243.464 594.802 248.603 589.663 248.603 583.324C248.603 576.984 243.464 571.845 237.125 571.845C230.786 571.845 225.647 576.984 225.647 583.324C225.647 589.663 230.786 594.802 237.125 594.802Z" fill="#4DEE54"/>
<path d="M759.898 594.802C766.238 594.802 771.377 589.663 771.377 583.324C771.377 576.984 766.238 571.845 759.898 571.845C753.559 571.845 748.42 576.984 748.42 583.324C748.42 589.663 753.559 594.802 759.898 594.802Z" fill="#4DEE54"/>
<path d="M788.072 448.71C794.411 448.71 799.55 443.571 799.55 437.232C799.55 430.892 794.411 425.753 788.072 425.753C781.733 425.753 776.594 430.892 776.594 437.232C776.594 443.571 781.733 448.71 788.072 448.71Z" fill="#4DEE54"/>
<path d="M754.681 342.272C761.02 342.272 766.159 337.133 766.159 330.794C766.159 324.454 761.02 319.315 754.681 319.315C748.342 319.315 743.203 324.454 743.203 330.794C743.203 337.133 748.342 342.272 754.681 342.272Z" fill="#4DEE54"/>
<path d="M275.733 437.232C275.726 440.164 274.593 442.981 272.566 445.1C270.54 447.22 267.777 448.479 264.848 448.618C261.92 448.756 259.05 447.764 256.833 445.845C254.616 443.926 253.221 441.229 252.937 438.311C252.653 435.392 253.503 432.477 255.309 430.167C257.115 427.857 259.74 426.33 262.64 425.902C265.541 425.474 268.495 426.177 270.891 427.867C273.287 429.556 274.943 432.102 275.514 434.978C275.661 435.72 275.735 436.475 275.733 437.232Z" fill="#4DEE54"/>
<path d="M505.294 375.665C511.633 375.665 516.772 370.525 516.772 364.186C516.772 357.846 511.633 352.707 505.294 352.707C498.955 352.707 493.816 357.846 493.816 364.186C493.816 370.525 498.955 375.665 505.294 375.665Z" fill="#4DEE54"/>
<path d="M391.557 364.186C391.55 367.118 390.417 369.935 388.39 372.055C386.364 374.174 383.601 375.433 380.672 375.572C377.744 375.71 374.874 374.718 372.657 372.799C370.44 370.881 369.045 368.183 368.761 365.265C368.477 362.346 369.326 359.431 371.133 357.121C372.939 354.811 375.564 353.284 378.464 352.856C381.365 352.428 384.319 353.131 386.715 354.821C389.111 356.51 390.767 359.056 391.338 361.932C391.485 362.674 391.559 363.429 391.557 364.186Z" fill="#4DEE54"/>
<path d="M243.386 330.794C243.379 333.726 242.245 336.543 240.219 338.662C238.193 340.782 235.43 342.041 232.501 342.179C229.572 342.318 226.703 341.325 224.485 339.407C222.268 337.488 220.873 334.791 220.59 331.872C220.306 328.954 221.155 326.038 222.961 323.729C224.767 321.419 227.392 319.892 230.293 319.464C233.193 319.036 236.147 319.739 238.544 321.428C240.94 323.118 242.595 325.664 243.167 328.54C243.314 329.282 243.387 330.037 243.386 330.794Z" fill="#4DEE54"/>
<path d="M625.292 473.755C631.631 473.755 636.77 468.615 636.77 462.276C636.77 455.937 631.631 450.797 625.292 450.797C618.953 450.797 613.814 455.937 613.814 462.276C613.814 468.615 618.953 473.755 625.292 473.755Z" fill="#4DEE54"/>
<path d="M444.773 369.403C453.994 369.403 461.469 361.928 461.469 352.707C461.469 343.486 453.994 336.011 444.773 336.011C435.553 336.011 428.078 343.486 428.078 352.707C428.078 361.928 435.553 369.403 444.773 369.403Z" fill="#4DEE54"/>
<path d="M896.27 595.68L1.24242 596C1.07926 596 0.917698 595.968 0.76696 595.906C0.616222 595.843 0.479266 595.752 0.363896 595.636C0.248526 595.521 0.156998 595.384 0.0945604 595.233C0.0321226 595.083 0 594.921 0 594.758C0 594.595 0.0321226 594.433 0.0945604 594.282C0.156998 594.132 0.248526 593.995 0.363896 593.879C0.479266 593.764 0.616222 593.672 0.76696 593.61C0.917698 593.547 1.07926 593.515 1.24242 593.515L896.27 593.195C896.599 593.196 896.914 593.327 897.147 593.56C897.379 593.793 897.509 594.108 897.509 594.437C897.509 594.766 897.379 595.081 897.147 595.314C896.914 595.547 896.599 595.679 896.27 595.68Z" fill="#CACACA"/>
</svg>
